<svg width="563" height="381" viewBox="0 0 563 381" fill="none" xmlns="http://www.w3.org/2000/svg">
    <path opacity="0.18" d="M252.122 345.501C318.622 342.709 467.622 436 553.622 327.501C581.559 292.255 536.633 247.711 509.832 198.257C492.622 166.5 509.832 134.5 497.622 77.001C490.011 41.1636 455.242 21.0533 432.272 9.69276C416.717 1.99997 383.833 0.130105 313.122 13.5C194.122 36 208.622 -8.66667 144.622 2.00003C15.6217 23.5 -13.5273 126.18 5.12169 227C21.1217 313.5 59.1216 378.501 117.622 378.501C173.284 378.501 184.8 348.327 252.122 345.501Z" fill="#48CAE4"/>
    <path d="M180.752 293C153.596 295.003 126.825 300.567 101.132 309.547C99.3006 310.186 97.1216 311.264 97.1216 313.208C97.1216 315.152 99.1268 316.323 100.932 316.962C108.725 319.731 117.187 319.838 125.462 319.904C157.465 320.21 190.163 320.397 220.495 310.239C223.169 309.334 226.444 307.51 226.096 304.675C225.749 301.839 222.3 300.894 219.519 300.521L172.771 294.171" fill="url(#paint0_linear)"/>
    <path d="M201.213 157.48C200.881 157.779 200.462 157.957 200.022 157.988C197.343 158.236 192.964 154.472 191.451 153.25L185.947 148.772C182.426 145.915 179.118 141.245 182.6 136.959C182.704 136.824 182.815 136.696 182.934 136.574C183.272 136.211 183.66 135.901 184.086 135.654C184.996 135.124 186.047 134.908 187.086 135.036C189.469 135.338 191.291 137.371 192.777 139.349C195.656 143.195 198.133 147.33 200.678 151.436C201.289 152.348 201.742 153.361 202.017 154.431C202.157 154.967 202.157 155.531 202.015 156.066C201.874 156.602 201.598 157.09 201.213 157.48Z" fill="white"/>
    <path d="M199.918 157.989C197.254 158.23 192.899 154.554 191.394 153.36L185.921 148.987C182.418 146.197 179.129 141.635 182.591 137.45C183.398 137.072 184.292 136.928 185.175 137.034C187.572 137.329 189.37 139.314 190.835 141.246C193.698 145.016 196.162 149.041 198.693 153.065C199.308 153.946 199.759 154.933 200.024 155.976C200.184 156.643 200.147 157.343 199.918 157.989V157.989Z" fill="url(#paint1_linear)"/>
    <path d="M186.94 125.734C187.716 126.427 188.381 127.225 188.913 128.101L191.471 131.983C192.397 133.131 192.967 134.502 193.117 135.942C193.143 136.217 193.055 136.491 192.872 136.706C192.702 136.843 192.494 136.932 192.274 136.965C189.443 137.638 186.538 137.985 183.621 138C182.608 138.01 181.607 137.797 180.695 137.379C179.231 136.458 178.198 135.035 177.811 133.406C177.022 131.22 174.75 126.678 177.294 124.867C179.593 123.288 184.886 124.039 186.94 125.734Z" fill="white"/>
    <path d="M187.297 125.701C188.028 126.396 188.655 127.195 189.156 128.073L191.566 131.962C192.439 133.112 192.976 134.486 193.117 135.928C193.142 136.203 193.059 136.478 192.887 136.693C192.726 136.83 192.531 136.92 192.323 136.952C189.656 137.626 186.918 137.975 184.169 137.989C183.231 138.046 182.293 137.886 181.426 137.522C180.046 136.6 179.072 135.174 178.708 133.543C177.964 131.353 175.836 126.803 178.221 124.988C180.387 123.252 185.361 124.003 187.297 125.701Z" fill="url(#paint2_linear)"/>
    <path d="M157.29 100.446C157.227 102.829 157.861 105.175 159.108 107.182C159.43 107.604 159.714 108.055 159.957 108.529C160.324 109.655 160.378 110.863 160.114 112.018C159.709 114.834 159.251 117.824 157.408 119.953C157.297 120.065 157.209 120.198 157.146 120.344C157.029 120.721 157.355 121.098 157.643 121.367C158.571 122.243 159.526 123.092 160.493 123.94C161.485 124.87 162.593 125.659 163.788 126.284C165.503 127.078 167.436 127.216 169.241 126.675C169.369 126.654 169.492 126.605 169.6 126.53C169.709 126.456 169.8 126.358 169.868 126.244C169.927 126.051 169.927 125.844 169.868 125.651C169.374 123.185 169.003 120.694 168.757 118.188C168.685 117.656 168.685 117.117 168.757 116.585C168.872 116.124 169.025 115.673 169.214 115.238C169.657 113.898 169.921 112.502 169.999 111.089C170.289 108.166 170.063 105.213 169.332 102.373C168.599 99.5107 167.078 96.9282 164.952 94.9367C163.461 93.5896 160.637 92.1077 158.781 93.6704C158.241 94.2879 157.907 95.0665 157.826 95.8932C157.479 97.3847 157.299 98.9125 157.29 100.446V100.446Z" fill="white"/>
    <path d="M157.29 100.446C157.227 102.829 157.861 105.175 159.108 107.182C159.43 107.604 159.714 108.055 159.957 108.529C160.324 109.655 160.378 110.863 160.114 112.018C159.709 114.834 159.251 117.824 157.408 119.953C157.297 120.065 157.209 120.198 157.146 120.344C157.029 120.721 157.355 121.098 157.643 121.367C158.571 122.243 159.526 123.092 160.493 123.94C161.485 124.87 162.593 125.659 163.788 126.284C165.503 127.078 167.436 127.216 169.241 126.675C169.369 126.654 169.492 126.605 169.6 126.53C169.709 126.456 169.8 126.358 169.868 126.244C169.927 126.051 169.927 125.844 169.868 125.651C169.374 123.185 169.003 120.694 168.757 118.188C168.685 117.656 168.685 117.117 168.757 116.585C168.872 116.124 169.025 115.673 169.214 115.238C169.657 113.898 169.921 112.502 169.999 111.089C170.289 108.166 170.063 105.213 169.332 102.373C168.599 99.5107 167.078 96.9282 164.952 94.9367C163.461 93.5896 160.637 92.1077 158.781 93.6704C158.241 94.2879 157.907 95.0665 157.826 95.8932C157.479 97.3847 157.299 98.9125 157.29 100.446V100.446Z" fill="url(#paint3_linear)"/>
    <path d="M155.122 91.668C155.166 90.6369 155.477 89.6352 156.024 88.7615L157.655 85.6284C158.031 84.8349 158.503 84.0914 159.061 83.4152C160.075 82.3743 161.379 81.6675 162.802 81.3887C164.952 80.9772 167.152 80.8919 169.327 81.1354C170.495 81.1789 171.656 81.3442 172.789 81.6287C174.404 82.1926 175.87 83.1181 177.076 84.3354C178.283 85.5526 179.198 87.0297 179.753 88.6548C180.819 91.9153 181.269 95.3474 181.079 98.7741C181.097 100.487 180.982 102.199 180.735 103.894C180.215 106.571 179.322 109.161 178.082 111.587C177.548 112.83 176.838 113.988 175.973 115.026C175.505 115.64 174.902 116.137 174.212 116.48C173.522 116.822 172.763 117 171.994 117C171.224 117 170.465 116.822 169.775 116.48C169.085 116.137 168.482 115.64 168.014 115.026C166.918 113.751 166.052 112.294 165.454 110.72C164.638 109.139 164.185 107.394 164.128 105.614C164.286 104.6 164.353 103.573 164.327 102.547C164.063 101.361 163.506 100.261 162.709 99.3474C161.965 98.181 161.017 97.16 159.91 96.3343C158.893 95.6919 157.934 94.9602 157.045 94.1478C156.342 93.4012 155.175 93.0679 155.122 91.668Z" fill="white"/>
    <path d="M185.973 165.177C186.277 167.878 186.036 170.612 185.262 173.218C185.173 173.54 184.991 173.829 184.739 174.049C184.356 174.264 183.913 174.348 183.478 174.29C180.581 174.214 177.683 174.366 174.811 174.746C173.107 174.973 171.417 175.282 169.713 175.536C168.666 175.697 167.62 175.831 166.574 175.912C163.231 176.164 159.869 175.875 156.619 175.054C156.269 174.986 155.936 174.849 155.639 174.652C155.269 174.338 154.983 173.938 154.808 173.486L148.1 159.736C146.834 157.271 145.727 154.729 144.786 152.123C143.884 149.478 143.343 146.724 143.176 143.935C143.077 142.286 143.113 140.632 143.283 138.99C143.236 138.605 143.274 138.214 143.393 137.845C143.511 137.476 143.709 137.137 143.972 136.852C144.234 136.566 144.556 136.341 144.914 136.192C145.273 136.043 145.659 135.973 146.047 135.988C147.622 135.823 149.183 135.541 150.716 135.143C151.483 134.945 152.203 134.596 152.834 134.118C153.465 133.639 153.994 133.04 154.392 132.356C155.398 130.413 154.767 128.027 153.868 126.03C153.336 124.642 152.442 123.421 151.279 122.492C150.568 121.996 149.602 121.313 149.938 120.535C150.05 120.314 150.222 120.129 150.434 119.999C153.225 118.043 156.055 119.235 158.296 121.206C159.588 122.281 161.091 123.075 162.708 123.537C164.325 123.998 166.021 124.117 167.687 123.886C169.606 123.645 168.814 121.782 168.707 120.308C170.276 120.75 171.819 121.273 173.349 121.835C174.803 122.303 176.165 123.019 177.374 123.953C178.402 124.94 179.279 126.074 179.976 127.317C180.741 128.523 181.492 129.729 182.163 130.975C187.798 141.59 185.665 153.651 185.973 165.177Z" fill="white"/>
    <path d="M170.122 175.538C169.057 175.698 167.992 175.832 166.928 175.912C163.526 176.164 160.106 175.875 156.799 175.057C156.443 174.99 156.104 174.854 155.803 174.657C155.426 174.344 155.135 173.945 154.956 173.495L148.131 159.794C146.843 157.338 145.717 154.805 144.76 152.209C143.846 149.586 143.295 146.855 143.122 144.089C144.284 143.236 145.672 142.726 147.121 142.62C149.254 142.404 151.355 141.956 153.387 141.285C154.151 141.018 160.212 138.841 160.212 138C160.621 140.858 157.782 143.048 155.339 144.677C154.577 145.08 153.959 145.699 153.564 146.453C153.326 147.246 153.326 148.09 153.564 148.883C154.863 154.749 156.476 160.544 158.396 166.244C158.845 167.983 159.685 169.602 160.853 170.984C163.297 173.481 167.214 173.695 170.122 175.538Z" fill="url(#paint4_linear)"/>
    <path d="M138.399 168.478C137.913 169.747 137.17 170.909 136.214 171.896C135.729 172.386 135.111 172.732 134.431 172.895C133.751 173.058 133.037 173.031 132.373 172.817C131.996 172.654 131.658 172.417 131.382 172.12C130.445 170.795 130.008 169.197 130.147 167.597C130.182 159.403 131.267 151.245 133.377 143.31C133.934 141.219 134.341 137.498 136.499 136.302C137.519 136.03 138.581 135.941 139.634 136.039C142.349 136.131 145.864 136.683 145.946 137.538C147.031 148.215 142.919 158.695 138.399 168.478Z" fill="white"/>
    <path d="M134.438 167.963C133.96 169.231 133.221 170.39 132.266 171.371C131.999 171.618 131.699 171.829 131.375 172C130.443 170.68 130.009 169.087 130.147 167.492C130.181 159.325 131.26 151.194 133.359 143.286C133.912 141.202 134.317 137.493 136.463 136.301C137.477 136.03 138.533 135.941 139.58 136.038C140.93 136.314 141.888 136.668 141.942 137.126C143.035 147.768 138.96 158.213 134.438 167.963Z" fill="url(#paint5_linear)"/>
    <path d="M146.764 121.696C145.511 122.32 144.408 123.189 143.527 124.246C142.646 125.303 142.006 126.525 141.649 127.833C141.19 129.131 141.028 130.508 141.173 131.871C141.318 133.234 141.767 134.551 142.49 135.734C143.554 137.205 145.127 138.268 146.93 138.736C148.734 139.204 150.653 139.046 152.347 138.291C152.931 138.004 153.478 137.652 153.976 137.242C155.511 135.929 156.555 134.171 156.948 132.236C157.341 130.302 157.062 128.297 156.153 126.529C154.177 122.847 151.692 119.51 146.764 121.696Z" fill="white"/>
    <path d="M146.764 121.696C145.511 122.32 144.408 123.189 143.527 124.246C142.646 125.303 142.006 126.525 141.649 127.833C141.19 129.131 141.028 130.508 141.173 131.871C141.318 133.234 141.767 134.551 142.49 135.734C143.554 137.205 145.127 138.268 146.93 138.736C148.734 139.204 150.653 139.046 152.347 138.291C152.931 138.004 153.478 137.652 153.976 137.242C155.511 135.929 156.555 134.171 156.948 132.236C157.341 130.302 157.062 128.297 156.153 126.529C154.177 122.847 151.692 119.51 146.764 121.696Z" fill="url(#paint6_linear)"/>
    <path d="M146.404 141.739C147.08 141.545 147.701 141.2 148.222 140.73C148.744 140.259 149.15 139.677 149.411 139.026C150.496 137.169 151.324 135.175 151.873 133.097C152.14 132.057 152.193 130.973 152.027 129.912C151.861 128.851 151.48 127.834 150.907 126.925C149.584 125.37 147.884 124.179 145.969 123.465C144.551 122.695 143.001 122.198 141.398 122C139.777 122.005 138.195 122.5 136.861 123.42C135.528 124.341 134.506 125.643 133.93 127.155C132.852 130.229 132.852 133.578 133.93 136.652C135.014 139.696 136.282 142.673 137.726 145.565C138.392 147.071 141.317 144.208 141.684 143.923C143.139 142.963 144.73 142.227 146.404 141.739V141.739Z" fill="white"/>
    <path d="M138.122 171.209C136.968 170.984 135.78 170.94 134.609 171.08C134.033 171.154 133.48 171.329 132.982 171.595C132.483 171.862 132.05 172.213 131.707 172.63C131.33 173.131 131.127 173.719 131.123 174.321C131.11 174.586 131.167 174.851 131.289 175.093C131.411 175.336 131.595 175.55 131.826 175.719C132.17 175.902 132.565 175.996 132.966 175.989C134.308 176.07 135.634 175.697 136.677 174.944C137.189 174.564 137.571 174.064 137.777 173.501C137.983 172.938 138.006 172.335 137.843 171.761" fill="white"/>
    <path d="M228.001 143.442C227.969 143.595 227.929 143.745 227.88 143.894C226.696 146.877 224.705 149.503 222.112 151.503C218.241 154.916 213.919 157.826 209.257 160.157C205.842 161.873 201.109 163.343 198.258 159.964L198.03 159.68C195.448 156.288 198.904 153.644 201.754 151.851C208.8 147.389 217.271 145.738 224.546 141.701C225.433 141.211 226.59 140.682 227.437 141.237C227.743 141.513 227.959 141.868 228.059 142.26C228.159 142.651 228.139 143.062 228.001 143.442V143.442Z" fill="white"/>
    <path d="M228.122 143C228.089 143.156 228.048 143.311 228 143.463C226.806 146.517 224.798 149.206 222.183 151.253C218.279 154.747 213.921 157.726 209.22 160.113C205.776 161.87 201.003 163.375 198.129 159.915C197.966 157.473 200.583 155.518 202.807 154.079C209.898 149.51 218.44 147.82 225.857 143.7C226.514 143.234 227.309 142.989 228.122 143Z" fill="url(#paint7_linear)"/>
    <path d="M227.314 136.571C227.73 134.095 228.534 131.393 230.707 130.115C230.949 129.955 231.311 130.115 231.418 130.421C231.499 130.71 231.47 131.018 231.338 131.287C231.029 132.139 230.479 132.871 230.117 133.709C229.901 134.106 229.783 134.548 229.771 134.999C229.76 135.45 229.855 135.898 230.05 136.305C233.053 134.6 235.309 131.849 236.381 128.584C236.481 128.152 236.668 127.745 236.931 127.386C237.065 127.212 237.254 127.087 237.468 127.032C237.682 126.977 237.908 126.993 238.111 127.08C237.816 129.922 237.079 132.702 235.925 135.32L240.485 129.316C240.437 132.016 239.608 134.645 238.098 136.891C239.517 135.461 240.817 133.921 241.988 132.285C242.524 135.174 240.485 137.836 238.567 140.086C239.605 139.038 240.805 138.162 242.122 137.49C239.734 142.415 234.248 145.384 229.111 146.728C226.831 147.327 224.658 147.101 225.208 144.359C225.758 141.616 226.884 139.274 227.314 136.571Z" fill="white"/>
    <path d="M170.718 204.706C169.134 214.907 166.505 224.915 162.875 234.569C162.28 236.619 161.26 238.517 159.881 240.138C159.518 240.517 159.11 240.849 158.666 241.127C158.012 241.58 157.259 241.867 156.472 241.964C155.684 242.06 154.885 241.963 154.143 241.682C151.646 240.573 150.979 237.393 150.731 234.674C149.761 224.362 149.95 213.972 151.293 203.703C151.881 199.309 152.483 191.391 156.221 188.33C157.233 187.642 158.392 187.207 159.603 187.057C160.814 186.908 162.042 187.05 163.189 187.472C165.176 187.998 166.984 189.061 168.417 190.547C171.607 194.255 171.372 199.81 170.718 204.706Z" fill="white"/>
    <path d="M170.707 204.345C169.079 214.612 166.379 224.684 162.65 234.399C162.038 236.462 160.99 238.373 159.574 240.004C159.201 240.386 158.782 240.72 158.325 241C156.526 239.592 155.975 236.87 155.747 234.506C154.748 224.127 154.946 213.67 156.338 203.335C156.929 198.913 157.547 190.944 161.401 187.863C161.871 187.489 162.402 187.197 162.972 187C165.014 187.529 166.871 188.599 168.343 190.094C171.62 193.826 171.378 199.418 170.707 204.345Z" fill="url(#paint8_linear)"/>
    <path d="M155.177 238.006C154.254 238.111 153.368 238.429 152.589 238.932C151.813 239.356 151.148 239.956 150.648 240.682C150.196 241.486 150.028 242.417 150.171 243.326C150.314 244.236 150.76 245.072 151.437 245.7C152.133 246.308 152.979 246.722 153.888 246.901C154.797 247.08 155.737 247.016 156.614 246.716C157.008 246.597 157.379 246.414 157.714 246.176C158.154 245.779 158.506 245.294 158.747 244.754C158.988 244.213 159.112 243.628 159.112 243.037C159.254 240.721 157.895 237.852 155.177 238.006Z" fill="white"/>
    <path d="M158.057 250.763C157.625 261.157 154.408 271.203 151.244 281.076L147.791 291.763C147.419 293.395 146.624 294.895 145.49 296.105C144.951 296.617 144.259 296.929 143.526 296.989C142.793 297.05 142.061 296.856 141.449 296.439C141.321 296.354 141.21 296.245 141.122 296.118C142.299 283.881 143.502 271.626 144.731 259.353C144.901 256.076 145.531 252.841 146.601 249.748C147.776 247.133 149.719 244.957 152.159 243.522C154.094 242.547 156.082 242.774 157.39 245.62C158.018 247.253 158.247 249.019 158.057 250.763V250.763Z" fill="white"/>
    <path d="M155.051 251.115C154.613 261.329 151.251 271.201 147.943 280.903C146.74 284.404 145.532 287.904 144.32 291.405C143.94 293.009 143.113 294.484 141.928 295.672C141.785 295.796 141.629 295.906 141.463 296C141.33 295.916 141.214 295.809 141.122 295.685C142.352 283.66 143.609 271.617 144.894 259.557C145.072 256.337 145.73 253.158 146.849 250.118C148.077 247.549 150.108 245.41 152.658 244C153.416 244.522 154.007 245.235 154.367 246.061C155.019 247.667 155.254 249.402 155.051 251.115Z" fill="url(#paint9_linear)"/>
    <path d="M189.056 246.298C188.618 256.698 185.268 266.75 181.945 276.628C180.742 280.193 179.534 283.757 178.321 287.322C177.941 288.955 177.114 290.456 175.928 291.666C175.785 291.792 175.629 291.904 175.463 292C175.333 291.911 175.218 291.803 175.122 291.679L178.855 254.84C179.03 251.56 179.694 248.322 180.824 245.229C182.044 242.608 184.077 240.428 186.635 239C187.389 239.535 187.98 240.261 188.345 241.099C189.008 242.75 189.252 244.534 189.056 246.298V246.298Z" fill="url(#paint10_linear)"/>
    <path d="M146.136 296.241C145.531 295.618 144.759 295.188 143.913 295.002C142.986 294.973 142.077 295.268 141.342 295.837C140.344 296.335 139.573 297.197 139.186 298.247C139.079 298.892 139.106 299.552 139.266 300.186L140.083 304.872C140.11 305.35 140.305 305.803 140.632 306.151C140.906 306.345 141.224 306.465 141.556 306.502L145.882 307.336C147.873 307.811 149.916 308.032 151.962 307.996C152.659 308.002 153.342 307.805 153.931 307.431C154.465 306.962 154.829 306.327 154.962 305.626C155.175 305.035 155.175 304.387 154.962 303.795C154.359 302.448 153.328 303.431 152.484 302.987C151.855 302.65 151.4 301.223 150.958 300.631C149.517 298.993 147.9 297.521 146.136 296.241V296.241Z" fill="white"/>
    <path d="M180.763 291.254C180.191 290.626 179.458 290.19 178.656 290.002C177.787 289.976 176.936 290.271 176.247 290.836C175.304 291.33 174.577 292.194 174.216 293.247C174.09 293.886 174.09 294.547 174.216 295.186L174.985 299.886C175.013 300.359 175.196 300.808 175.503 301.151C175.763 301.34 176.061 301.46 176.373 301.502L180.448 302.337C182.324 302.81 184.248 303.032 186.175 302.996C186.832 303.006 187.477 302.809 188.03 302.431C188.538 301.966 188.881 301.329 189.001 300.626C189.181 300.027 189.159 299.379 188.938 298.795C188.37 297.448 187.412 298.431 186.604 297.987C186.011 297.65 185.582 296.223 185.166 295.63C183.856 294.001 182.379 292.533 180.763 291.254V291.254Z" fill="white"/>
    <path d="M194.116 231.895C194.025 234.033 193.486 236.13 192.534 238.053C192.034 239.011 191.257 239.8 190.302 240.321C189.347 240.842 188.258 241.072 187.171 240.98C186.896 240.932 186.626 240.856 186.366 240.755C184.14 239.921 182.893 237.312 182.062 235.007C178.51 225.219 176.107 215.059 174.902 204.729C174.379 200.319 172.998 192.465 175.961 188.544C176.589 187.733 177.428 187.106 178.388 186.73C180.05 186.117 181.831 185.885 183.596 186.053C185.362 186.22 187.065 186.783 188.579 187.697C192.748 190.478 193.942 195.935 194.478 200.875C195.444 211.2 195.322 221.595 194.116 231.895V231.895Z" fill="white"/>
    <path d="M189.146 232.872C189.063 235.014 188.544 237.116 187.622 239.041C187.187 239.804 186.607 240.47 185.917 241C183.773 240.166 182.572 237.558 181.771 235.254C178.349 225.471 176.035 215.316 174.873 204.991C174.37 200.583 173.039 192.732 175.894 188.814C176.498 188.003 177.306 187.376 178.232 187C180.211 187.04 182.143 187.625 183.824 188.695C187.842 191.488 188.991 196.942 189.521 201.933C190.432 212.232 190.307 222.599 189.146 232.872V232.872Z" fill="url(#paint11_linear)"/>
    <path d="M189.729 233.006C188.703 233.111 187.719 233.429 186.854 233.932C185.995 234.36 185.258 234.959 184.699 235.682C184.202 236.487 184.019 237.417 184.177 238.325C184.336 239.234 184.828 240.069 185.575 240.7C186.348 241.308 187.287 241.723 188.297 241.901C189.306 242.08 190.351 242.016 191.324 241.716C191.768 241.602 192.187 241.419 192.56 241.176C193.049 240.779 193.44 240.294 193.708 239.753C193.975 239.213 194.113 238.628 194.112 238.037C194.256 235.721 192.747 232.852 189.729 233.006Z" fill="white"/>
    <path d="M180.887 244.716C179.735 247.798 179.063 251.028 178.892 254.3L175.122 291.102C175.744 291.678 176.573 292 177.436 292C178.299 292 179.129 291.678 179.751 291.102C180.951 289.897 181.793 288.403 182.19 286.777L185.849 276.098C189.217 266.22 192.627 256.182 193.056 245.797C193.253 244.057 193.005 242.298 192.336 240.671C189.189 234.224 182.495 241.005 180.887 244.716Z" fill="white"/>
    <path d="M189.056 246.298C188.618 256.698 185.268 266.75 181.945 276.628C180.742 280.193 179.534 283.757 178.321 287.322C177.941 288.955 177.114 290.456 175.928 291.666C175.785 291.792 175.629 291.904 175.463 292C175.333 291.911 175.218 291.803 175.122 291.679L178.855 254.84C179.03 251.56 179.694 248.322 180.824 245.229C182.044 242.608 184.077 240.428 186.635 239C187.389 239.535 187.98 240.261 188.345 241.099C189.008 242.75 189.252 244.534 189.056 246.298V246.298Z" fill="url(#paint12_linear)"/>
    <path d="M148.399 304.098C148.243 304.079 148.085 304.124 147.96 304.223C147.814 304.363 147.827 304.614 147.721 304.796C147.615 304.977 147.176 305.061 146.857 305.019C145.942 304.939 145.045 304.708 144.199 304.335C143.785 304.146 143.415 303.867 143.112 303.515C142.81 303.164 142.582 302.748 142.445 302.297C142.06 300.747 143.083 298.863 142.139 297.607C141.954 297.39 141.722 297.223 141.463 297.119C141.203 297.016 140.924 296.979 140.649 297.012C140.373 297.044 140.109 297.146 139.878 297.308C139.647 297.469 139.457 297.687 139.322 297.942C139.12 298.522 139.07 299.148 139.176 299.756C139.318 301.217 139.49 302.683 139.694 304.153C139.689 304.317 139.718 304.48 139.779 304.631C139.839 304.783 139.93 304.918 140.044 305.029C140.159 305.141 140.295 305.225 140.443 305.276C140.591 305.327 140.748 305.344 140.904 305.326L148.757 306.848C149.371 307.001 150.005 307.039 150.631 306.959C151.601 306.778 152.731 305.466 151.734 304.53C151.11 303.916 149.209 304.084 148.399 304.098Z" fill="url(#paint13_linear)"/>
    <path d="M183.116 299.379C182.948 299.362 182.779 299.402 182.644 299.492C182.486 299.63 182.501 299.856 182.386 300.007C182.272 300.158 181.785 300.246 181.456 300.208C180.469 300.143 179.501 299.935 178.592 299.592C178.145 299.424 177.745 299.173 177.419 298.857C177.093 298.54 176.848 298.165 176.702 297.758C176.287 296.364 177.389 294.668 176.373 293.537C176.172 293.345 175.921 293.197 175.642 293.105C175.363 293.014 175.064 292.981 174.768 293.011C174.472 293.04 174.188 293.13 173.94 293.274C173.691 293.418 173.485 293.611 173.338 293.839C173.12 294.361 173.066 294.925 173.18 295.472C173.338 296.791 173.509 298.11 173.724 299.429C173.743 299.642 173.817 299.848 173.939 300.032C174.227 300.303 174.621 300.468 175.041 300.497L183.503 301.854C184.158 301.997 184.837 302.036 185.507 301.967C186.567 301.804 187.784 300.61 186.696 299.781C186.037 299.216 183.99 299.366 183.116 299.379Z" fill="url(#paint14_linear)"/>
    <path d="M158.745 195.072C159.497 195.756 160.354 196.667 160.064 197.659C159.774 198.651 158.6 198.92 157.612 199C154.359 198.827 151.208 197.787 148.476 195.984C143.997 193.406 139.863 190.252 136.176 186.6C133.394 183.825 130.468 179.656 133.236 175.782C135.767 172.256 139.393 174.696 141.99 176.814C148.449 181.881 152.615 189.388 158.745 195.072Z" fill="white"/>
    <path d="M160.059 196.712C159.781 197.614 158.657 197.923 157.692 198C154.424 197.829 151.26 196.826 148.515 195.09C144.022 192.615 139.875 189.586 136.178 186.077C133.402 183.437 130.492 179.471 133.203 175.776V175.712C135.742 172.325 139.365 174.669 141.983 176.703C148.462 181.738 152.641 188.961 158.763 194.343C159.503 194.897 160.363 195.772 160.059 196.712Z" fill="white"/>
    <path d="M157.122 198C153.927 197.824 150.833 196.789 148.15 194.999C143.756 192.446 139.702 189.322 136.088 185.703C133.373 182.981 130.529 178.89 133.179 175.079C135.26 174.614 137.6 176.288 139.436 177.735C145.771 182.941 149.779 190.377 155.855 195.942C156.504 196.449 156.953 197.18 157.122 198V198Z" fill="url(#paint15_linear)"/>
    <path d="M155.164 184.105C155.054 184.827 155.161 185.565 155.471 186.224C155.781 186.883 156.279 187.433 156.902 187.802C161.261 191.211 167.035 193.046 170.136 197.595C170.684 198.64 171.434 199.563 172.341 200.309C173.408 200.85 174.604 201.077 175.792 200.964C176.42 201.042 177.058 200.992 177.666 200.816C178.274 200.641 178.842 200.343 179.334 199.942C179.702 199.496 179.976 198.978 180.139 198.421C182.554 191.963 183.9 185.146 184.122 178.246C184.122 176.751 183.992 174.968 182.695 174.313C181.968 174.013 181.172 173.926 180.398 174.064L162.948 175.506C160.898 175.676 158.005 175.257 156.63 176.817C155.254 178.377 155.164 182.336 155.164 184.105Z" fill="white"/>
    <path d="M166.544 177.39C165.809 178.329 165.033 179.242 164.23 180.13C168.123 181.069 170.709 184.592 172.397 188.088C174.112 191.429 175.041 195.091 175.119 198.813C175.134 199.046 175.092 199.278 174.996 199.492C174.855 199.702 174.643 199.86 174.396 199.941C174.149 200.022 173.881 200.02 173.635 199.936C173.147 199.75 172.709 199.46 172.356 199.087C168.233 195.393 163.778 192.053 159.045 189.106C158.276 188.676 157.563 188.159 156.922 187.567C156.213 186.824 155.699 185.929 155.425 184.957C154.771 182.817 155.071 178.942 157.357 177.651C159.644 176.359 164.122 177.39 166.544 177.39Z" fill="url(#paint16_linear)"/>
    <path d="M163.993 194.22C166.413 193.848 169.197 193.765 171.006 195.475C171.052 195.532 171.087 195.598 171.109 195.67C171.13 195.742 171.137 195.818 171.13 195.893C171.123 195.967 171.101 196.04 171.066 196.106C171.031 196.171 170.984 196.229 170.928 196.274C170.687 196.446 170.396 196.52 170.108 196.481C169.223 196.481 168.365 196.15 167.506 196.054C167.071 195.968 166.623 195.992 166.198 196.124C165.773 196.256 165.383 196.491 165.06 196.812C167.551 199.216 170.798 200.548 174.167 200.549C174.606 200.502 175.049 200.554 175.468 200.7C175.671 200.773 175.845 200.916 175.963 201.106C176.081 201.295 176.136 201.522 176.119 201.748C173.385 202.372 170.576 202.544 167.792 202.258L174.753 204.781C172.214 205.613 169.502 205.647 166.947 204.878C168.705 205.799 170.528 206.578 172.398 207.208C169.874 208.586 166.777 207.511 164.123 206.353C165.405 207.029 166.574 207.923 167.584 209C162.302 208.228 157.905 203.816 155.12 199.225C153.819 197.184 153.442 194.992 156.148 194.648C158.854 194.303 161.339 194.648 163.993 194.22Z" fill="white"/>
    <path d="M172.46 98.1828C172.092 98.111 171.711 98.1214 171.349 98.2131C170.987 98.3049 170.653 98.4752 170.375 98.7103C170.124 99.1539 170.056 99.6679 170.186 100.155C170.186 100.72 170.308 101.272 170.403 101.825C170.421 101.936 170.462 102.043 170.524 102.139C170.647 102.253 170.811 102.321 170.985 102.327C174.276 102.931 177.639 103.13 180.986 102.918C181.239 102.927 181.489 102.866 181.704 102.742C181.929 102.512 182.055 102.212 182.056 101.9C182.144 100.776 182.144 99.6465 182.056 98.5219C182.056 97.7306 181.298 98.0572 180.702 98.12C179.795 98.2204 178.862 98.233 177.995 98.2581C176.141 98.2707 174.246 98.2581 172.46 98.1828Z" fill="#48CAE4"/>
    <path opacity="0.16" d="M376.622 345C439.858 345 491.122 330.225 491.122 312C491.122 293.775 439.858 279 376.622 279C313.385 279 262.122 293.775 262.122 312C262.122 330.225 313.385 345 376.622 345Z" fill="#282328"/>
    <path d="M376.622 319C433.231 319 479.122 308.255 479.122 295C479.122 281.745 433.231 271 376.622 271C320.012 271 274.122 281.745 274.122 295C274.122 308.255 320.012 319 376.622 319Z" fill="#48CAE4"/>
    <path d="M512.122 238.714L483.679 295.136C480.92 300.646 476.04 304.908 470.071 307.023C442.135 316.858 357.167 341.466 283.219 308.036C280.289 306.7 277.666 304.817 275.501 302.497C273.337 300.176 271.675 297.465 270.612 294.52L206.122 117.652C220.21 108.958 235.472 101.713 245.704 89.1204C257.791 74.2456 260.726 54.4211 269.718 37.6101C278.709 20.799 294.505 7.42456 312.755 0C316.437 1.84652 320.066 3.78281 323.655 5.77038C336.662 13.0154 349.323 24.1715 363.838 28.5313C381.261 33.6606 400.792 31.8397 418.615 37.0843C437.693 42.688 455.97 53.0491 466.976 69.0138C492.604 106.047 472.086 157.493 487.935 199.271C493.378 213.543 502.89 226.109 512.122 238.714Z" fill="url(#paint17_linear)"/>
    <path opacity="0.82" d="M395.122 64.0444C395.086 66.8699 394.07 69.5939 392.249 71.7446C390.428 73.8954 387.916 75.3375 385.15 75.8212C382.384 76.305 379.536 75.7998 377.101 74.3932C374.666 72.9867 372.796 70.7673 371.816 68.1195C371.355 66.8289 371.12 65.4676 371.122 64.0961C371.125 60.8869 372.394 57.8102 374.65 55.5422C376.906 53.2741 379.965 52.0001 383.154 52.0001C385.976 51.9882 388.71 52.988 390.867 54.8204C392.199 55.9543 393.27 57.3669 394.005 58.9599C394.74 60.553 395.121 62.2881 395.122 64.0444V64.0444Z" fill="#48CAE4"/>
    <path opacity="0.55" d="M392.12 58.8867C392.113 62.0905 390.812 65.1618 388.502 67.4308C386.191 69.6999 383.058 70.9829 379.786 71C376.876 71.0072 374.058 70.0004 371.837 68.1597C371.362 66.8659 371.12 65.5012 371.122 64.1263C371.125 60.909 372.433 57.8247 374.758 55.551C377.083 53.2773 380.235 52.0001 383.522 52.0001C386.43 51.9881 389.248 52.9904 391.47 54.8274C391.926 56.1333 392.146 57.507 392.12 58.8867Z" fill="white"/>
    <path opacity="0.82" d="M338.616 170.958C339.669 170.232 340.944 169.902 342.216 170.025C343.489 170.149 344.677 170.718 345.571 171.633C346.466 172.548 347.009 173.749 347.106 175.026C347.203 176.303 346.846 177.573 346.1 178.612C345.742 179.127 345.296 179.574 344.782 179.932C344.198 180.365 343.532 180.677 342.825 180.848C342.118 181.019 341.384 181.046 340.666 180.927C339.948 180.809 339.262 180.547 338.647 180.157C338.032 179.767 337.502 179.258 337.088 178.659C336.674 178.06 336.384 177.384 336.236 176.671C336.087 175.958 336.084 175.222 336.225 174.507C336.366 173.792 336.65 173.113 337.058 172.511C337.466 171.908 337.992 171.393 338.602 170.997L338.616 170.958Z" fill="#48CAE4"/>
    <path opacity="0.55" d="M337.494 173.946C338.353 173.371 339.366 173.044 340.412 173.004C341.458 172.964 342.495 173.212 343.399 173.72C344.304 174.227 345.038 174.973 345.516 175.868C345.994 176.764 346.196 177.772 346.097 178.774C345.735 179.275 345.282 179.709 344.761 180.058C343.901 180.631 342.888 180.957 341.841 180.996C340.795 181.035 339.758 180.787 338.854 180.28C337.949 179.773 337.214 179.029 336.734 178.134C336.254 177.24 336.049 176.232 336.144 175.23C336.511 174.728 336.968 174.293 337.494 173.946Z" fill="white"/>
    <path opacity="0.82" d="M334.505 130.965C335.572 130.234 336.864 129.901 338.153 130.026C339.442 130.15 340.645 130.723 341.551 131.645C342.457 132.566 343.008 133.777 343.106 135.063C343.204 136.349 342.843 137.628 342.087 138.675C341.729 139.197 341.276 139.648 340.752 140.004C340.162 140.418 339.496 140.711 338.793 140.868C338.089 141.025 337.361 141.042 336.651 140.919C335.94 140.795 335.262 140.533 334.653 140.148C334.044 139.763 333.518 139.263 333.103 138.675C332.371 137.617 332.031 136.339 332.142 135.059C332.203 134.244 332.446 133.453 332.855 132.744C333.264 132.035 333.828 131.427 334.505 130.965V130.965Z" fill="#48CAE4"/>
    <path opacity="0.55" d="M333.492 133.944C334.352 133.37 335.364 133.044 336.411 133.004C337.458 132.964 338.494 133.212 339.399 133.718C340.303 134.224 341.038 134.968 341.516 135.861C341.994 136.754 342.196 137.76 342.097 138.76C341.739 139.263 341.286 139.697 340.761 140.041C340.171 140.439 339.504 140.722 338.8 140.873C338.095 141.024 337.367 141.041 336.656 140.922C335.945 140.803 335.265 140.55 334.656 140.18C334.046 139.809 333.519 139.326 333.104 138.76C332.371 137.741 332.031 136.509 332.142 135.276C332.504 134.757 332.961 134.305 333.492 133.944V133.944Z" fill="white"/>
    <g opacity="0.82">
        <path opacity="0.82" d="M345.305 174.362L344.651 172.564L380.802 159.499L368.2 139.242L402.364 130.012L402.857 131.863L371.187 140.427L383.695 160.498L345.305 174.362Z" fill="#48CAE4"/>
    </g>
    <path d="M368.583 140L360.368 128.241L341.761 134.923L341.122 133.162L361.085 126L370.122 138.951L368.583 140Z" fill="#48CAE4"/>
    <path opacity="0.82" d="M403.749 119.967C405.896 118.482 408.5 117.803 411.1 118.05C413.7 118.297 416.129 119.455 417.957 121.318C419.785 123.181 420.895 125.63 421.091 128.232C421.286 130.834 420.554 133.421 419.025 135.536C418.288 136.554 417.379 137.435 416.338 138.14C413.924 139.749 410.974 140.347 408.123 139.805C405.273 139.263 402.749 137.625 401.095 135.243C399.441 132.861 398.79 129.925 399.281 127.068C399.773 124.211 401.367 121.661 403.722 119.967H403.749Z" fill="#48CAE4"/>
    <path opacity="0.55" d="M401.851 125.017C403.572 123.79 405.598 123.094 407.691 123.009C409.784 122.924 411.857 123.454 413.666 124.538C415.476 125.621 416.946 127.212 417.904 129.123C418.862 131.035 419.268 133.188 419.074 135.328C418.342 136.369 417.438 137.269 416.402 137.988C414.682 139.212 412.657 139.907 410.565 139.991C408.473 140.076 406.401 139.547 404.592 138.466C402.783 137.385 401.312 135.797 400.351 133.889C399.389 131.98 398.978 129.83 399.166 127.691C399.909 126.651 400.817 125.747 401.851 125.017V125.017Z" fill="white"/>
    <g opacity="0.82">
        <path opacity="0.82" d="M388.082 135.126L365.107 95.7308L390.723 84.7699L384.322 73.1163L386.002 72.1974L393.416 85.7022L367.854 96.6365L389.736 134.154L388.082 135.126Z" fill="#48CAE4"/>
    </g>
    <path opacity="0.82" d="M386.566 201.739C389.016 200.816 391.708 200.756 394.196 201.57C396.685 202.384 398.821 204.022 400.252 206.215C401.683 208.407 402.323 211.023 402.066 213.628C401.809 216.234 400.671 218.674 398.839 220.545C397.007 222.416 394.592 223.606 391.993 223.918C389.393 224.23 386.765 223.646 384.542 222.262C382.32 220.878 380.636 218.776 379.77 216.306C378.903 213.835 378.906 211.142 379.777 208.673C380.335 207.093 381.231 205.653 382.404 204.455C383.577 203.257 384.997 202.33 386.566 201.739V201.739Z" fill="#48CAE4"/>
    <path opacity="0.55" d="M382.984 206.722C384.368 206.194 385.84 205.951 387.316 206.008C388.792 206.065 390.242 206.419 391.584 207.052C392.926 207.685 394.134 208.583 395.138 209.695C396.143 210.808 396.924 212.113 397.437 213.535C398.35 216.082 398.35 218.879 397.437 221.426C395.54 223.004 393.195 223.905 390.756 223.993C388.316 224.081 385.915 223.35 383.916 221.912C381.916 220.473 380.427 218.406 379.672 216.021C378.918 213.636 378.939 211.063 379.733 208.692C380.701 207.851 381.8 207.185 382.984 206.722Z" fill="white"/>
    <path opacity="0.82" d="M410.807 224.334C412.008 223.891 413.326 223.889 414.529 224.327C415.733 224.765 416.744 225.617 417.386 226.732C418.028 227.847 418.26 229.154 418.041 230.424C417.822 231.694 417.166 232.845 416.188 233.677C415.716 234.074 415.178 234.386 414.599 234.597C413.924 234.873 413.201 235.01 412.473 234.999C411.744 234.989 411.026 234.83 410.359 234.534C409.693 234.238 409.093 233.809 408.594 233.274C408.095 232.739 407.709 232.109 407.457 231.42C407.205 230.732 407.093 229.999 407.128 229.266C407.163 228.533 407.344 227.815 407.66 227.154C407.976 226.493 408.421 225.902 408.968 225.418C409.515 224.934 410.153 224.565 410.844 224.334H410.807Z" fill="#48CAE4"/>
    <path opacity="0.55" d="M409.188 226.361C410.238 225.979 411.378 225.898 412.474 226.128C413.57 226.357 414.575 226.888 415.373 227.657C416.17 228.425 416.726 229.401 416.975 230.468C417.224 231.534 417.155 232.648 416.778 233.679C416.266 234.096 415.683 234.423 415.056 234.645C414.007 235.022 412.869 235.101 411.776 234.871C410.683 234.641 409.679 234.113 408.882 233.347C408.085 232.581 407.527 231.61 407.274 230.546C407.021 229.482 407.083 228.37 407.453 227.34C407.971 226.92 408.557 226.589 409.188 226.361V226.361Z" fill="white"/>
    <path opacity="0.82" d="M378.011 239.378C379.125 238.963 380.338 238.888 381.495 239.161C382.653 239.435 383.703 240.045 384.513 240.914C385.323 241.784 385.856 242.874 386.045 244.046C386.234 245.218 386.071 246.42 385.575 247.499C385.08 248.579 384.275 249.487 383.262 250.109C382.249 250.732 381.074 251.04 379.885 250.996C378.697 250.951 377.548 250.556 376.585 249.859C375.622 249.163 374.887 248.196 374.474 247.083C374.004 245.782 374.004 244.357 374.474 243.056C374.757 242.221 375.221 241.459 375.832 240.824C376.443 240.188 377.187 239.694 378.011 239.378V239.378Z" fill="#48CAE4"/>
    <path opacity="0.55" d="M376.227 242.215C377.12 241.499 378.242 241.075 379.419 241.009C380.596 240.943 381.764 241.239 382.743 241.85C383.722 242.462 384.458 243.356 384.836 244.394C385.215 245.432 385.217 246.557 384.84 247.596C384.464 248.635 383.73 249.53 382.753 250.144C381.775 250.757 380.608 251.055 379.43 250.992C378.253 250.928 377.131 250.507 376.236 249.792C375.341 249.078 374.724 248.11 374.48 247.037C374.002 245.807 374.002 244.46 374.48 243.23C374.995 242.8 375.586 242.456 376.227 242.215V242.215Z" fill="white"/>
    <g opacity="0.82">
        <path opacity="0.82" d="M397.403 247.653L388.229 238.024L384.069 242.818L383.388 242.219L388.202 236.665L397.35 246.268L410.525 230.259L411.231 230.832L397.403 247.653Z" fill="#48CAE4"/>
    </g>
    <defs>
        <linearGradient id="paint0_linear" x1="148.669" y1="260.651" x2="181.033" y2="383.151" gradientUnits="userSpaceOnUse">
            <stop offset="0.01"/>
            <stop offset="0.08" stop-opacity="0.69"/>
            <stop offset="0.21" stop-opacity="0.32"/>
            <stop offset="1" stop-opacity="0"/>
        </linearGradient>
        <linearGradient id="paint1_linear" x1="2495.32" y1="3076.79" x2="2999.18" y2="2972.54" gradientUnits="userSpaceOnUse">
            <stop offset="0.01"/>
            <stop offset="0.08" stop-opacity="0.69"/>
            <stop offset="0.21" stop-opacity="0.32"/>
            <stop offset="1" stop-opacity="0"/>
        </linearGradient>
        <linearGradient id="paint2_linear" x1="2038.88" y1="1942.18" x2="2392.43" y2="1760.94" gradientUnits="userSpaceOnUse">
            <stop offset="0.01"/>
            <stop offset="0.08" stop-opacity="0.69"/>
            <stop offset="0.21" stop-opacity="0.32"/>
            <stop offset="1" stop-opacity="0"/>
        </linearGradient>
        <linearGradient id="paint3_linear" x1="1761.45" y1="3579.7" x2="1144.49" y2="3712.83" gradientUnits="userSpaceOnUse">
            <stop offset="0.01"/>
            <stop offset="0.08" stop-opacity="0.69"/>
            <stop offset="0.21" stop-opacity="0.32"/>
            <stop offset="1" stop-opacity="0"/>
        </linearGradient>
        <linearGradient id="paint4_linear" x1="2384.39" y1="5799.24" x2="3843.3" y2="5631.36" gradientUnits="userSpaceOnUse">
            <stop offset="0.01"/>
            <stop offset="0.08" stop-opacity="0.69"/>
            <stop offset="0.21" stop-opacity="0.32"/>
            <stop offset="1" stop-opacity="0"/>
        </linearGradient>
        <linearGradient id="paint5_linear" x1="1060.36" y1="4904.56" x2="1696.52" y2="5069.2" gradientUnits="userSpaceOnUse">
            <stop offset="0.01"/>
            <stop offset="0.08" stop-opacity="0.69"/>
            <stop offset="0.21" stop-opacity="0.32"/>
            <stop offset="1" stop-opacity="0"/>
        </linearGradient>
        <linearGradient id="paint6_linear" x1="1478.56" y1="2521.3" x2="2231.43" y2="2166.79" gradientUnits="userSpaceOnUse">
            <stop offset="0.01"/>
            <stop offset="0.08" stop-opacity="0.69"/>
            <stop offset="0.21" stop-opacity="0.32"/>
            <stop offset="1" stop-opacity="0"/>
        </linearGradient>
        <linearGradient id="paint7_linear" x1="4804.92" y1="3112.7" x2="4653.99" y2="2382.25" gradientUnits="userSpaceOnUse">
            <stop offset="0.01"/>
            <stop offset="0.08" stop-opacity="0.69"/>
            <stop offset="0.21" stop-opacity="0.32"/>
            <stop offset="1" stop-opacity="0"/>
        </linearGradient>
        <linearGradient id="paint8_linear" x1="1604.24" y1="10111.1" x2="2360.13" y2="10160.3" gradientUnits="userSpaceOnUse">
            <stop offset="0.01"/>
            <stop offset="0.08" stop-opacity="0.69"/>
            <stop offset="0.21" stop-opacity="0.32"/>
            <stop offset="1" stop-opacity="0"/>
        </linearGradient>
        <linearGradient id="paint9_linear" x1="1204.28" y1="11781.8" x2="1908.28" y2="11847.1" gradientUnits="userSpaceOnUse">
            <stop offset="0.01"/>
            <stop offset="0.08" stop-opacity="0.69"/>
            <stop offset="0.21" stop-opacity="0.32"/>
            <stop offset="1" stop-opacity="0"/>
        </linearGradient>
        <linearGradient id="paint10_linear" x1="1598.78" y1="11805.7" x2="2303.01" y2="11869.9" gradientUnits="userSpaceOnUse">
            <stop offset="0.01"/>
            <stop offset="0.08" stop-opacity="0.69"/>
            <stop offset="0.21" stop-opacity="0.32"/>
            <stop offset="1" stop-opacity="0"/>
        </linearGradient>
        <linearGradient id="paint11_linear" x1="1775.08" y1="10187.3" x2="2805.24" y2="10214.8" gradientUnits="userSpaceOnUse">
            <stop offset="0.01"/>
            <stop offset="0.08" stop-opacity="0.69"/>
            <stop offset="0.21" stop-opacity="0.32"/>
            <stop offset="1" stop-opacity="0"/>
        </linearGradient>
        <linearGradient id="paint12_linear" x1="1598.78" y1="11805.7" x2="2303.01" y2="11869.9" gradientUnits="userSpaceOnUse">
            <stop offset="0.01"/>
            <stop offset="0.08" stop-opacity="0.69"/>
            <stop offset="0.21" stop-opacity="0.32"/>
            <stop offset="1" stop-opacity="0"/>
        </linearGradient>
        <linearGradient id="paint13_linear" x1="1239.57" y1="2976.1" x2="1478.08" y2="2631.65" gradientUnits="userSpaceOnUse">
            <stop offset="0.01"/>
            <stop offset="0.08" stop-opacity="0.69"/>
            <stop offset="0.21" stop-opacity="0.32"/>
            <stop offset="1" stop-opacity="0"/>
        </linearGradient>
        <linearGradient id="paint14_linear" x1="1724.32" y1="2671.88" x2="1923.26" y2="2328.24" gradientUnits="userSpaceOnUse">
            <stop offset="0.01"/>
            <stop offset="0.08" stop-opacity="0.69"/>
            <stop offset="0.21" stop-opacity="0.32"/>
            <stop offset="1" stop-opacity="0"/>
        </linearGradient>
        <linearGradient id="paint15_linear" x1="2261.37" y1="4213.57" x2="2892.83" y2="3736.83" gradientUnits="userSpaceOnUse">
            <stop offset="0.01"/>
            <stop offset="0.08" stop-opacity="0.69"/>
            <stop offset="0.21" stop-opacity="0.32"/>
            <stop offset="1" stop-opacity="0"/>
        </linearGradient>
        <linearGradient id="paint16_linear" x1="1612.32" y1="4328.04" x2="3484.55" y2="3848.62" gradientUnits="userSpaceOnUse">
            <stop offset="0.01"/>
            <stop offset="0.08" stop-opacity="0.69"/>
            <stop offset="0.21" stop-opacity="0.32"/>
            <stop offset="1" stop-opacity="0"/>
        </linearGradient>
        <linearGradient id="paint17_linear" x1="354.712" y1="308.331" x2="365.264" y2="-28.9688" gradientUnits="userSpaceOnUse">
            <stop offset="0.01" stop-color="white"/>
            <stop offset="0.13" stop-color="white" stop-opacity="0.69"/>
            <stop offset="0.15" stop-color="white" stop-opacity="0.61"/>
            <stop offset="0.2" stop-color="white" stop-opacity="0.47"/>
            <stop offset="0.25" stop-color="white" stop-opacity="0.34"/>
            <stop offset="0.3" stop-color="white" stop-opacity="0.23"/>
            <stop offset="0.36" stop-color="white" stop-opacity="0.15"/>
            <stop offset="0.44" stop-color="white" stop-opacity="0.08"/>
            <stop offset="0.52" stop-color="white" stop-opacity="0.03"/>
            <stop offset="0.65" stop-color="white" stop-opacity="0.01"/>
            <stop offset="1" stop-color="white" stop-opacity="0"/>
        </linearGradient>
    </defs>
</svg>
