<svg width="543" height="438" viewBox="0 0 543 438" fill="none" xmlns="http://www.w3.org/2000/svg">
    <g clip-path="url(#clip0)">
        <path opacity="0.18" d="M168.714 30.6535C120.324 61.9105 87.5603 111.798 56.219 160.192C43.4354 179.943 30.5944 199.809 21.1432 221.356C11.4765 243.419 5.51562 267.006 2.09709 290.865C-3.00197 326.46 -0.301629 367.787 27.1902 390.971C41.6256 403.137 60.686 408.208 79.2581 411.526C153.087 424.828 229.156 416.669 303.66 425.316C344.424 430.056 384.972 439.839 425.966 437.684C466.959 435.529 510.194 418.665 530.59 383.099C554.39 341.543 540.386 288.567 518.496 245.976C496.606 203.386 466.988 163.18 459.275 115.921C456.1 96.5144 456.56 75.7866 446.965 58.6354C436.236 39.4302 415.078 28.6713 394.438 21.0725C323.668 -5.04204 234.93 -12.1668 168.714 30.6535Z" fill="#48CAE4"/>
        <path opacity="0.18" d="M69.1749 198.057C74.6474 203.544 81.542 207.351 88.3359 211.071L121.372 229.242C122.413 229.919 123.599 230.342 124.834 230.477C126.173 230.406 127.471 229.985 128.597 229.256C146.474 219.811 163.619 209.041 179.889 197.037C176.126 193.69 172.076 190.199 167.091 189.381C164.356 189.089 161.593 189.2 158.89 189.711C138.866 192.395 118.63 193.146 98.4622 191.952C95.2683 191.809 92.0844 191.492 88.9248 191.004C86.4974 190.587 82.964 188.82 80.5365 189.266C78.6262 189.625 69.7782 198.66 69.1749 198.057Z" fill="#48CAE4"/>
        <path opacity="0.18" d="M180.765 298.536C189.8 307.585 201.176 313.863 212.365 320.082L266.947 350.047C268.674 351.172 270.642 351.876 272.692 352.101C274.909 351.969 277.055 351.271 278.926 350.075C308.411 334.483 336.694 316.718 363.542 296.927C357.337 291.397 350.614 285.637 342.442 284.301C337.92 283.81 333.351 283.989 328.882 284.832C295.845 289.26 262.459 290.501 229.185 288.538C223.918 288.292 218.668 287.765 213.457 286.958C209.464 286.283 203.618 283.353 199.625 284.085C196.364 284.631 181.756 299.527 180.765 298.536Z" fill="#48CAE4"/>
        <path opacity="0.18" d="M368.44 208.212C373.496 213.269 379.844 216.831 386.092 220.221L416.543 236.941C417.498 237.677 418.67 238.077 419.876 238.077C421.081 238.077 422.253 237.677 423.208 236.941C439.676 228.232 455.472 218.308 470.464 207.25C466.988 204.162 463.282 200.958 458.672 200.197C456.147 199.931 453.597 200.033 451.102 200.499C432.654 202.975 414.01 203.668 395.429 202.567C392.49 202.433 389.56 202.141 386.653 201.691C384.426 201.303 381.151 199.68 378.925 200.096C377.158 200.456 369 208.773 368.44 208.212Z" fill="#48CAE4"/>
        <path opacity="0.18" d="M351.491 380.801C356.532 385.843 362.895 389.419 369.143 392.795L399.594 409.53C400.556 410.151 401.646 410.544 402.783 410.679C404.019 410.6 405.215 410.21 406.259 409.544C422.724 400.835 438.519 390.915 453.515 379.867C450.039 376.779 446.333 373.561 441.722 372.814C439.198 372.534 436.647 372.636 434.153 373.116C415.704 375.585 397.061 376.278 378.48 375.184C375.54 375.053 372.61 374.755 369.704 374.294C367.477 373.92 364.202 372.283 361.976 372.699C360.209 372.972 351.993 381.289 351.491 380.801Z" fill="#48CAE4"/>
        <path opacity="0.18" d="M52.2115 378.345C57.2675 383.401 63.6162 386.963 69.8787 390.353L100.315 407.073C101.27 407.81 102.442 408.209 103.647 408.209C104.853 408.209 106.025 407.81 106.98 407.073C123.448 398.365 139.244 388.44 154.236 377.382C150.76 374.294 147.054 371.09 142.443 370.329C139.919 370.064 137.369 370.165 134.874 370.631C116.426 373.107 97.7818 373.8 79.2007 372.699C76.2617 372.565 73.332 372.273 70.4245 371.823C68.1982 371.435 64.9377 369.812 62.6969 370.229C60.9302 370.588 52.7717 378.905 52.2115 378.345Z" fill="#48CAE4"/>
        <path d="M267.981 335.251L185.118 287.403V274.36L267.464 239.857L350.327 274.662V287.705L267.981 335.251Z" fill="#48CAE4"/>
        <path d="M267.981 322.208L185.118 274.36L267.464 226.814L350.327 274.662L267.981 322.208Z" fill="white"/>
        <path d="M267.923 310.444L205.485 274.389L267.521 238.564L329.96 274.619L267.923 310.444Z" fill="#48CAE4"/>
        <path d="M267.88 304.569L215.669 274.418L267.564 244.454L319.776 274.605L267.88 304.569Z" fill="white"/>
        <path d="M254.709 279.948L199.495 264.147C200.726 262.979 202.131 262.009 203.661 261.275L247.513 237.659C247.827 237.4 248.191 237.208 248.583 237.095C248.974 236.982 249.385 236.951 249.789 237.004C250.193 237.056 250.582 237.191 250.932 237.401C251.281 237.61 251.584 237.889 251.822 238.22L286.582 269.29C287.659 270.044 288.429 271.161 288.751 272.436C288.774 273.189 288.566 273.931 288.155 274.563C287.745 275.194 287.15 275.685 286.452 275.969C285.041 276.495 283.529 276.696 282.028 276.558C278.101 276.425 274.193 275.944 270.351 275.122C268.727 274.659 267.038 274.47 265.352 274.562C264.507 274.622 263.697 274.926 263.019 275.435C262.341 275.945 261.825 276.639 261.532 277.434" fill="url(#paint0_linear)"/>
        <path d="M269.59 262.122C269.53 263.954 269.868 265.777 270.581 267.466C271.48 269.033 272.838 270.287 274.473 271.057C277.964 272.881 282.026 273.282 285.806 272.177C286.325 272.085 286.79 271.803 287.113 271.387C287.311 271.049 287.392 270.655 287.343 270.267C287.062 268.178 285.999 266.274 284.37 264.937C282.757 263.611 281.378 262.023 280.29 260.24C278.552 256.735 279.845 247.384 273.238 248.892C267.708 250.085 269.432 258.215 269.59 262.122Z" fill="#FFBBAB"/>
        <path d="M268.685 268.442C268.685 268.442 267.751 270.755 268.9 272.105C270.049 273.456 281.928 280.853 289.928 274.906C297.929 268.959 279.084 268.184 279.084 268.184L268.685 268.442Z" fill="#48CAE4"/>
        <path d="M269.13 263.013C269.495 262.834 269.911 262.793 270.304 262.895C270.697 262.998 271.04 263.239 271.27 263.573C272.052 264.459 273.046 265.132 274.159 265.529C275.272 265.926 276.467 266.034 277.633 265.842C280.247 265.225 281.281 262.223 282.589 262.208C283.896 262.194 290.79 268.083 291.207 270.611C291.623 273.139 288.075 274.921 284.169 275.237C280.262 275.553 271.414 272.78 269.805 270.726C269.079 269.59 268.638 268.295 268.521 266.952C268.403 265.609 268.612 264.257 269.13 263.013Z" fill="white"/>
        <path d="M246.91 265.742C246.85 267.574 247.188 269.397 247.901 271.085C248.8 272.653 250.158 273.907 251.793 274.677C255.284 276.502 259.346 276.904 263.126 275.797C263.645 275.705 264.11 275.423 264.433 275.007C264.631 274.669 264.712 274.275 264.663 273.886C264.381 271.798 263.319 269.894 261.69 268.557C260.077 267.231 258.698 265.643 257.61 263.86C255.872 260.355 257.165 250.932 250.558 252.512C245.028 253.762 246.752 261.835 246.91 265.742Z" fill="#FFBBAB"/>
        <path d="M245.99 272.062C245.99 272.062 245.057 274.375 246.206 275.725C247.355 277.075 259.234 284.473 267.234 278.598C275.235 272.723 256.39 271.875 256.39 271.875L245.99 272.062Z" fill="#48CAE4"/>
        <path d="M246.45 266.69C246.821 266.522 247.24 266.494 247.631 266.61C248.021 266.726 248.357 266.979 248.576 267.322C249.358 268.208 250.352 268.881 251.465 269.278C252.577 269.675 253.773 269.783 254.939 269.591C257.553 268.974 258.587 265.972 259.894 265.957C261.201 265.943 268.096 271.832 268.512 274.36C268.929 276.889 265.381 278.742 261.474 278.986C257.567 279.23 248.719 276.529 247.039 274.475C246.311 273.325 245.877 272.013 245.774 270.656C245.672 269.299 245.904 267.937 246.45 266.69Z" fill="white"/>
        <path d="M242.17 168.092C242.17 168.092 240.934 236.036 245.976 258.703L258.745 260.269L267.579 167.245L242.17 168.092Z" fill="#473F47"/>
        <path d="M281.612 160.666C281.612 160.666 287.63 197.324 280.334 256.175L267.564 257.755L258.731 164.731L281.612 160.666Z" fill="#473F47"/>
        <path d="M296.593 131.449C296.45 133.905 295.645 136.046 293.519 136.749C293.344 136.819 293.161 136.867 292.974 136.893C289.052 137.683 283.91 134.695 280.319 132.095C278.817 131.015 277.379 129.85 276.01 128.605V102.361L295.085 121.897C296.091 124.981 296.6 128.205 296.593 131.449Z" fill="white"/>
        <path d="M281.483 133.187C281.483 134.408 281.641 135.658 281.641 136.893C281.641 143.673 280.075 150.668 282.086 157.319C282.752 158.734 282.953 160.323 282.661 161.858C282.057 163.08 281.039 164.047 279.788 164.588C273.813 167.848 266.861 168.897 260.167 169.802C255.097 170.506 247.901 172.014 243.204 169.285C241.207 168.121 240.532 165.952 239.9 163.783C237.861 156.917 237.272 149.519 236.726 142.395C236.726 141.461 236.597 140.527 236.539 139.522C236.156 133.029 236.027 126.536 236.151 120.044C236.238 115.318 236.611 110.233 239.685 106.67C243.778 101.93 251.707 98.7985 257.711 97.6925C259.662 97.2962 261.66 97.1849 263.643 97.3621C266.45 97.8118 269.16 98.7347 271.658 100.091C274.646 101.528 277.303 102.806 278.768 105.765C280.379 109.172 281.5 112.789 282.1 116.51C282.644 119.999 282.706 123.547 282.287 127.053C282.115 128.777 281.669 130.486 281.497 132.196C281.497 132.569 281.483 132.871 281.483 133.187Z" fill="white"/>
        <path opacity="0.1" d="M253.704 171.368C252.943 171.584 252.147 171.648 251.362 171.554C249.481 171.454 247.656 170.434 245.818 170.118C244.913 169.945 244.094 169.5 243.204 169.285C238.708 168.164 238.176 155.552 237.731 152.162C236.568 143.185 234.859 133.891 234.672 124.87C234.481 121.399 234.884 117.92 235.864 114.585C236.371 112.921 237.237 111.388 238.401 110.095C239.565 108.802 240.999 107.78 242.6 107.101C243.224 106.831 243.915 106.756 244.583 106.886C247.211 107.561 247.125 110.563 248.001 112.545C249.007 114.772 251.836 116.582 254.422 115.418C257.007 114.255 257.381 110.505 258.372 107.661C259.053 105.554 260.491 103.773 262.408 102.663C267.105 100.163 270.767 103.998 272.347 108.164C273.927 112.33 272.204 117.788 271.371 122.256C269.288 133.316 266.372 144.406 260.684 154.202C258.386 158.167 253.991 162.907 254.02 167.547C254.02 169.802 254.652 170.951 253.704 171.368Z" fill="#020202"/>
        <path d="M264.692 94.7621C263.771 95.2936 262.689 95.4722 261.647 95.2649C260.773 95.0969 259.917 94.8468 259.09 94.5179C257.754 94.0439 258.013 95.8107 257.941 96.8593C257.857 98.1875 257.91 99.5209 258.099 100.838C258.204 101.311 258.204 101.802 258.099 102.275C257.993 102.629 257.795 102.949 257.525 103.201C257.255 103.454 256.922 103.63 256.562 103.711C255.863 103.876 255.135 103.876 254.436 103.711C253.637 103.559 252.853 103.333 252.095 103.036C251.455 102.829 250.884 102.451 250.443 101.944C249.963 101.11 249.776 100.139 249.912 99.1864C250.141 92.3345 249.667 84.6783 252.454 78.243C252.73 77.3599 253.194 76.5471 253.814 75.8603C254.433 75.1736 255.195 74.6293 256.045 74.2648C256.895 73.9004 257.815 73.7244 258.739 73.7491C259.664 73.7738 260.573 73.9985 261.402 74.4077C264.097 75.1829 266.507 76.7251 268.34 78.8463C268.597 79.2193 268.769 79.6443 268.843 80.0911C268.918 80.538 268.893 80.9957 268.771 81.4319C268.618 82.9929 268.388 84.5442 268.081 86.086C267.737 87.8241 267.32 89.5622 266.817 91.2716C266.535 92.6465 265.784 93.8806 264.692 94.7621Z" fill="#FFBBAB"/>
        <path d="M266.329 78.9612C265.985 78.9888 265.639 78.9888 265.295 78.9612C263.694 78.4094 262.018 78.109 260.325 78.0706C258.923 78.3187 257.658 79.0637 256.761 80.1692C255.864 81.2747 255.396 82.6664 255.442 84.0893C254.637 84.0893 254.91 82.7821 254.522 82.0639C254.135 81.3457 252.626 81.6904 252.267 82.5667C252.024 83.5089 252.024 84.4974 252.267 85.4396C252.464 87.2587 252.028 89.09 251.032 90.6251C250.788 90.9842 250.357 91.3721 249.998 91.1422C249.639 90.9124 249.553 90.1511 249.409 89.7058C249.163 89.1227 248.87 88.5606 248.533 88.0252C247.901 86.9766 247.096 85.9854 246.464 84.9512C245.287 83.1125 244.353 80.8286 245.028 78.7601C245.344 77.9208 245.886 77.1851 246.594 76.6342C247.297 76.074 248.245 76.0021 248.935 75.5138C249.624 75.0254 249.308 74.5801 249.538 73.948C250.426 72.1472 251.755 70.6005 253.402 69.452C254.764 68.2483 256.361 67.3387 258.091 66.7801C259.821 66.2215 261.647 66.026 263.456 66.2056C265.353 66.5655 267.096 67.4953 268.451 68.8709C269.806 70.2465 270.709 72.0026 271.04 73.9049C271.689 74.2939 272.215 74.8565 272.561 75.5293C272.906 76.202 273.056 76.9579 272.994 77.7115C273.007 78.3917 272.895 79.0684 272.663 79.7082C272.348 80.4868 271.801 81.1503 271.098 81.6098C270.395 82.0693 269.568 82.303 268.728 82.2794C268.941 81.4987 269.004 80.6848 268.915 79.8805C268.899 79.7035 268.845 79.5319 268.757 79.3778C268.512 78.9181 267.248 78.9469 266.329 78.9612Z" fill="#473F47"/>
        <path d="M259.392 94.6184L258.918 94.4461C258.801 94.4044 258.675 94.4044 258.558 94.4461C258.415 94.4461 258.343 94.6472 258.286 94.7764C257.858 95.8521 257.69 97.0137 257.797 98.1664L257.984 99.962C257.984 99.962 252.109 97.0891 254.149 91.1566C255.758 92.4984 257.506 93.6638 259.363 94.6328L259.392 94.6184Z" fill="#E0A194"/>
        <path d="M312.494 124.669C309.989 128.216 306.888 131.302 303.33 133.79C300.768 135.538 297.801 136.602 294.712 136.879C294.305 136.922 293.893 136.878 293.505 136.749C292.847 136.551 292.268 136.149 291.853 135.6C290.563 134.062 289.789 132.158 289.641 130.156C289.426 124.927 295.099 121.896 295.099 121.896C295.099 121.896 308.027 117.774 309.463 118.449C310.31 118.808 311.1 120.632 311.646 122.198C312.192 123.52 312.494 124.669 312.494 124.669Z" fill="white"/>
        <path d="M293.706 122.026L301.261 98.267C301.514 97.4651 302.031 96.7722 302.727 96.3004C303.423 95.8285 304.258 95.6054 305.096 95.667L311.115 96.1123C311.702 96.1561 312.27 96.3376 312.774 96.6421C313.278 96.9466 313.703 97.3655 314.015 97.8648C314.327 98.3642 314.517 98.9301 314.57 99.5165C314.622 100.103 314.536 100.694 314.318 101.24L304.866 124.769C304.577 125.489 304.07 126.101 303.415 126.518C302.761 126.935 301.993 127.137 301.218 127.096L297.081 126.895C296.51 126.865 295.954 126.704 295.455 126.425C294.956 126.147 294.527 125.757 294.201 125.287C293.875 124.818 293.661 124.279 293.575 123.714C293.49 123.149 293.534 122.571 293.706 122.026Z" fill="#48CAE4"/>
        <path d="M255.571 149.131C253.15 149.988 250.488 149.849 248.169 148.745C245.851 147.64 244.065 145.661 243.204 143.242L234.428 118.506C233.571 116.085 233.71 113.423 234.814 111.105C235.919 108.786 237.897 107 240.317 106.139C245.358 104.358 246.22 107.575 248.001 112.56L255.585 135.169C257.381 140.182 260.612 147.336 255.571 149.131Z" fill="white"/>
        <path opacity="0.1" d="M312.494 124.669C309.989 128.216 306.888 131.302 303.33 133.79C300.768 135.538 297.801 136.602 294.712 136.879C294.305 136.922 293.893 136.878 293.505 136.749C293.33 136.819 293.146 136.867 292.959 136.893C289.038 137.683 283.896 134.695 280.305 132.095V132.009L281.526 124.166C283.875 126.592 286.607 128.615 289.613 130.156C291.735 131.297 294.159 131.749 296.55 131.449C297.192 131.348 297.816 131.154 298.403 130.874C303.193 128.601 307.661 125.703 311.689 122.256C312.192 123.52 312.494 124.669 312.494 124.669Z" fill="#020202"/>
        <path d="M262.106 94.9489C262.293 94.1875 262.652 93.2826 263.428 93.1246C264.447 92.9378 265.209 94.1875 266.3 94.2881C266.846 94.2881 267.435 94.0726 267.938 94.2881C268.186 94.4212 268.402 94.6076 268.57 94.8339C269.377 95.8765 269.949 97.0807 270.249 98.3645C270.549 99.6484 270.569 100.982 270.307 102.274C270.045 103.566 269.508 104.787 268.733 105.853C267.957 106.919 266.961 107.805 265.812 108.451C265.166 108.863 264.409 109.069 263.643 109.04C262.939 108.909 262.272 108.625 261.69 108.207C259.751 107.001 260.67 104.946 260.871 103.05C261.106 100.326 261.519 97.6197 262.106 94.9489Z" fill="#FFBBAB"/>
        <path d="M254.594 149.246C251.98 149.778 242.256 146.302 249.811 128.576C253.258 120.46 255.039 112.775 259.607 105.205C259.834 104.725 260.206 104.328 260.67 104.07C261.138 103.926 261.638 103.926 262.106 104.07C264.283 104.435 266.432 104.943 268.541 105.593C268.85 105.648 269.13 105.811 269.331 106.053C269.462 106.319 269.508 106.621 269.46 106.914C268.9 114.24 266.042 121.178 264.878 128.461C264.132 133.187 264.045 138.171 261.761 142.38C260.972 143.788 256.217 148.916 254.594 149.246Z" fill="white"/>
        <path d="M309.822 112.502C309.112 111.918 308.252 111.546 307.34 111.426C306.429 111.307 305.502 111.446 304.665 111.827C303.655 112.42 302.809 113.256 302.204 114.26C301.6 115.264 301.256 116.402 301.204 117.573C300.954 119.375 301.281 121.211 302.137 122.816C302.937 124.148 304.18 125.155 305.649 125.659C307.118 126.164 308.718 126.134 310.167 125.574C311.394 124.995 312.402 124.034 313.038 122.836C313.675 121.637 313.907 120.264 313.7 118.923C313.384 117.998 312.896 117.14 312.264 116.395C311.652 114.981 310.828 113.669 309.822 112.502Z" fill="#FFBBAB"/>
        <path d="M190.518 301.093H190.202C189.987 301.051 189.782 300.968 189.599 300.847C189.416 300.727 189.259 300.571 189.136 300.39C189.014 300.209 188.928 300.005 188.884 299.79C188.84 299.575 188.839 299.354 188.881 299.139C189.532 296.447 190.822 293.951 192.642 291.863C194.463 289.775 196.759 288.157 199.337 287.145C199.541 287.061 199.759 287.018 199.98 287.018C200.2 287.019 200.418 287.063 200.621 287.149C200.824 287.234 201.008 287.359 201.162 287.516C201.317 287.674 201.439 287.86 201.521 288.064C201.686 288.478 201.681 288.94 201.505 289.349C201.33 289.758 201 290.082 200.587 290.248C198.528 291.052 196.691 292.335 195.227 293.991C193.763 295.648 192.715 297.629 192.17 299.771C192.085 300.146 191.876 300.481 191.576 300.721C191.275 300.961 190.903 301.092 190.518 301.093Z" fill="white"/>
        <path d="M203.718 309.223C203.613 309.237 203.507 309.237 203.402 309.223C202.967 309.139 202.582 308.887 202.332 308.521C202.082 308.155 201.987 307.705 202.067 307.269C202.722 304.575 204.016 302.078 205.838 299.989C207.66 297.899 209.958 296.277 212.538 295.261C212.744 295.168 212.968 295.117 213.194 295.113C213.421 295.108 213.646 295.149 213.856 295.234C214.067 295.319 214.257 295.445 214.418 295.605C214.578 295.766 214.704 295.957 214.788 296.167C214.873 296.378 214.913 296.603 214.908 296.83C214.903 297.056 214.853 297.28 214.759 297.486C214.666 297.693 214.531 297.878 214.364 298.031C214.197 298.185 214.001 298.302 213.787 298.378C211.726 299.179 209.887 300.461 208.423 302.118C206.959 303.775 205.912 305.758 205.37 307.901C205.285 308.276 205.076 308.611 204.776 308.852C204.476 309.092 204.103 309.223 203.718 309.223Z" fill="white"/>
        <path d="M216.976 317.368H216.66C216.225 317.284 215.84 317.032 215.59 316.666C215.34 316.3 215.244 315.85 215.324 315.414C215.98 312.722 217.272 310.227 219.091 308.137C220.911 306.047 223.205 304.425 225.781 303.405C226.192 303.239 226.653 303.243 227.062 303.415C227.471 303.587 227.795 303.914 227.964 304.325C228.048 304.528 228.091 304.747 228.091 304.967C228.09 305.187 228.046 305.405 227.96 305.608C227.875 305.811 227.75 305.995 227.593 306.15C227.435 306.304 227.249 306.426 227.045 306.508C224.985 307.311 223.147 308.594 221.683 310.251C220.219 311.907 219.172 313.889 218.628 316.032C218.546 316.409 218.338 316.748 218.037 316.991C217.737 317.234 217.362 317.367 216.976 317.368Z" fill="white"/>
        <path d="M230.119 325.512H229.803C229.367 325.429 228.983 325.176 228.733 324.81C228.482 324.445 228.387 323.995 228.467 323.559C229.116 320.864 230.405 318.365 232.225 316.274C234.046 314.184 236.343 312.563 238.923 311.55C239.326 311.423 239.762 311.452 240.144 311.631C240.526 311.81 240.827 312.127 240.986 312.518C241.146 312.909 241.152 313.346 241.004 313.742C240.856 314.137 240.564 314.462 240.187 314.653C238.126 315.455 236.285 316.737 234.819 318.394C233.353 320.05 232.302 322.033 231.756 324.176C231.68 324.554 231.475 324.893 231.176 325.137C230.878 325.381 230.504 325.513 230.119 325.512Z" fill="white"/>
        <path d="M243.319 333.643C243.209 333.657 243.098 333.657 242.988 333.643C242.773 333.601 242.568 333.518 242.385 333.397C242.203 333.277 242.045 333.121 241.922 332.94C241.8 332.758 241.714 332.554 241.67 332.34C241.626 332.125 241.625 331.904 241.667 331.689C242.316 328.994 243.605 326.495 245.425 324.405C247.246 322.314 249.543 320.694 252.124 319.68C252.537 319.513 253 319.516 253.411 319.69C253.821 319.864 254.146 320.193 254.314 320.607C254.482 321.02 254.478 321.483 254.304 321.894C254.131 322.305 253.801 322.63 253.388 322.797C251.326 323.6 249.485 324.882 248.019 326.538C246.553 328.195 245.503 330.177 244.956 332.321C244.877 332.696 244.671 333.032 244.372 333.273C244.074 333.514 243.702 333.644 243.319 333.643Z" fill="white"/>
        <path d="M344.151 301.078C344.256 301.092 344.362 301.092 344.467 301.078C344.902 300.995 345.287 300.742 345.537 300.377C345.787 300.011 345.883 299.561 345.803 299.125C345.15 296.431 343.858 293.934 342.035 291.846C340.212 289.758 337.913 288.14 335.332 287.13C335.128 287.048 334.91 287.007 334.69 287.009C334.471 287.012 334.254 287.057 334.052 287.143C333.85 287.229 333.666 287.354 333.513 287.511C333.359 287.668 333.238 287.853 333.156 288.057C333.073 288.261 333.032 288.479 333.035 288.698C333.037 288.918 333.082 289.135 333.168 289.337C333.254 289.539 333.379 289.722 333.536 289.876C333.693 290.03 333.878 290.151 334.082 290.233C336.143 291.034 337.982 292.317 339.446 293.973C340.911 295.63 341.957 297.613 342.499 299.757C342.581 300.133 342.79 300.469 343.091 300.71C343.392 300.951 343.766 301.081 344.151 301.078Z" fill="white"/>
        <path d="M330.951 309.223C331.056 309.238 331.162 309.238 331.267 309.223C331.702 309.139 332.087 308.887 332.337 308.521C332.587 308.155 332.683 307.705 332.603 307.269C331.954 304.574 330.664 302.076 328.844 299.985C327.024 297.895 324.726 296.274 322.146 295.261C321.733 295.095 321.27 295.101 320.861 295.276C320.452 295.451 320.129 295.781 319.963 296.194C319.878 296.398 319.835 296.616 319.836 296.837C319.837 297.057 319.881 297.275 319.967 297.478C320.052 297.681 320.177 297.865 320.334 298.02C320.491 298.174 320.677 298.296 320.882 298.378C322.943 299.18 324.784 300.463 326.25 302.119C327.717 303.775 328.767 305.758 329.313 307.901C329.395 308.275 329.602 308.61 329.9 308.85C330.197 309.09 330.568 309.222 330.951 309.223Z" fill="white"/>
        <path d="M317.751 317.368H318.067C318.283 317.328 318.489 317.246 318.674 317.126C318.858 317.006 319.017 316.851 319.142 316.669C319.266 316.488 319.353 316.283 319.398 316.068C319.442 315.852 319.444 315.63 319.402 315.414C318.753 312.709 317.459 310.202 315.631 308.106C313.803 306.009 311.494 304.387 308.903 303.377C308.5 303.249 308.064 303.278 307.682 303.458C307.3 303.637 306.999 303.954 306.84 304.345C306.68 304.736 306.674 305.173 306.822 305.568C306.97 305.964 307.262 306.289 307.639 306.479C309.699 307.284 311.538 308.567 313.004 310.223C314.471 311.879 315.521 313.86 316.07 316.003C316.144 316.392 316.354 316.742 316.661 316.992C316.969 317.242 317.355 317.375 317.751 317.368Z" fill="white"/>
        <path d="M304.594 325.512H304.91C305.342 325.425 305.723 325.172 305.971 324.806C306.218 324.441 306.311 323.993 306.231 323.559C305.582 320.864 304.293 318.365 302.472 316.274C300.652 314.184 298.354 312.563 295.774 311.55C295.571 311.466 295.353 311.423 295.132 311.423C294.912 311.424 294.694 311.469 294.491 311.554C294.288 311.64 294.104 311.764 293.949 311.922C293.795 312.079 293.673 312.265 293.591 312.469C293.425 312.881 293.428 313.341 293.601 313.751C293.773 314.16 294.1 314.484 294.51 314.653C296.572 315.455 298.412 316.737 299.879 318.394C301.345 320.05 302.395 322.033 302.942 324.176C303.024 324.554 303.232 324.892 303.533 325.135C303.833 325.378 304.207 325.511 304.594 325.512Z" fill="white"/>
        <path d="M291.365 333.642C291.47 333.656 291.576 333.656 291.681 333.642C291.896 333.601 292.101 333.518 292.284 333.397C292.467 333.277 292.624 333.121 292.747 332.94C292.869 332.758 292.955 332.554 292.999 332.34C293.043 332.125 293.044 331.904 293.002 331.689C292.353 328.994 291.064 326.495 289.244 324.405C287.423 322.314 285.126 320.694 282.546 319.68C282.137 319.536 281.688 319.555 281.293 319.734C280.899 319.913 280.588 320.238 280.427 320.64C280.266 321.042 280.266 321.491 280.428 321.893C280.59 322.295 280.901 322.619 281.296 322.797C283.355 323.601 285.192 324.885 286.656 326.541C288.12 328.197 289.168 330.179 289.713 332.321C289.795 332.697 290.004 333.034 290.305 333.274C290.606 333.515 290.98 333.645 291.365 333.642Z" fill="white"/>
        <path d="M403.056 399.862L357.954 373.82V366.709L402.783 347.935L447.885 366.882V373.978L403.056 399.862Z" fill="#48CAE4"/>
        <path d="M403.056 392.766L357.954 366.709L402.783 340.825L447.885 366.882L403.056 392.766Z" fill="white"/>
        <path d="M403.027 386.36L369.043 366.738L402.812 347.231L436.81 366.853L403.027 386.36Z" fill="#48CAE4"/>
        <path d="M403.013 383.157L374.573 366.738L402.826 350.434L431.266 366.839L403.013 383.157Z" fill="white"/>
        <path d="M360.899 381.261H360.712C360.477 381.212 360.271 381.074 360.137 380.875C360.003 380.676 359.951 380.433 359.994 380.198C360.352 378.725 361.062 377.361 362.063 376.223C363.063 375.085 364.325 374.206 365.739 373.662C365.85 373.617 365.968 373.595 366.087 373.596C366.206 373.598 366.323 373.622 366.432 373.669C366.542 373.716 366.641 373.783 366.724 373.868C366.807 373.954 366.873 374.054 366.917 374.165C366.964 374.276 366.988 374.395 366.988 374.516C366.988 374.636 366.963 374.755 366.917 374.866C366.87 374.977 366.801 375.078 366.715 375.162C366.629 375.246 366.527 375.313 366.414 375.357C365.292 375.793 364.291 376.491 363.494 377.393C362.696 378.295 362.127 379.375 361.832 380.542C361.786 380.752 361.666 380.939 361.496 381.071C361.325 381.202 361.114 381.269 360.899 381.261Z" fill="white"/>
        <path d="M368.081 385.699H367.908C367.79 385.678 367.677 385.634 367.576 385.569C367.474 385.505 367.387 385.42 367.319 385.321C367.251 385.222 367.203 385.111 367.178 384.993C367.154 384.876 367.153 384.754 367.176 384.636C367.539 383.166 368.25 381.804 369.25 380.667C370.25 379.529 371.509 378.649 372.921 378.1C373.146 378.014 373.396 378.018 373.618 378.112C373.841 378.206 374.018 378.382 374.113 378.603C374.203 378.83 374.198 379.083 374.101 379.306C374.004 379.53 373.823 379.706 373.596 379.795C372.476 380.234 371.476 380.933 370.679 381.835C369.883 382.737 369.312 383.815 369.014 384.981C368.967 385.191 368.848 385.378 368.677 385.509C368.507 385.64 368.296 385.708 368.081 385.699Z" fill="white"/>
        <path d="M375.262 390.123H375.09C374.973 390.101 374.861 390.056 374.762 389.99C374.662 389.925 374.577 389.84 374.51 389.741C374.443 389.642 374.397 389.531 374.373 389.415C374.349 389.298 374.349 389.177 374.372 389.06C374.727 387.586 375.435 386.221 376.436 385.082C377.438 383.943 378.701 383.066 380.117 382.525C380.228 382.478 380.348 382.454 380.468 382.454C380.589 382.454 380.708 382.478 380.819 382.525C380.93 382.572 381.031 382.641 381.115 382.727C381.199 382.813 381.265 382.915 381.309 383.027C381.396 383.253 381.392 383.502 381.298 383.725C381.204 383.947 381.028 384.124 380.807 384.22C379.682 384.655 378.679 385.352 377.879 386.254C377.079 387.156 376.507 388.237 376.21 389.405C376.166 389.619 376.045 389.81 375.871 389.942C375.697 390.074 375.48 390.138 375.262 390.123Z" fill="white"/>
        <path d="M382.444 394.562H382.272C382.154 394.541 382.041 394.497 381.941 394.432C381.84 394.367 381.754 394.282 381.687 394.183C381.62 394.084 381.573 393.972 381.55 393.855C381.527 393.737 381.529 393.616 381.553 393.499C381.914 392.027 382.625 390.665 383.625 389.527C384.625 388.389 385.886 387.509 387.299 386.963C387.518 386.898 387.753 386.917 387.959 387.016C388.164 387.115 388.326 387.287 388.412 387.498C388.498 387.71 388.502 387.945 388.424 388.16C388.346 388.374 388.19 388.552 387.988 388.658C386.866 389.094 385.865 389.792 385.067 390.694C384.27 391.597 383.701 392.676 383.406 393.844C383.359 394.059 383.235 394.25 383.059 394.382C382.882 394.514 382.664 394.577 382.444 394.562Z" fill="white"/>
        <path d="M389.626 398.986H389.453C389.336 398.964 389.225 398.919 389.125 398.853C389.026 398.787 388.94 398.703 388.873 398.604C388.807 398.505 388.76 398.394 388.736 398.277C388.713 398.161 388.712 398.04 388.735 397.923C389.094 396.451 389.804 395.087 390.804 393.949C391.805 392.81 393.066 391.932 394.481 391.387C394.7 391.322 394.935 391.341 395.141 391.44C395.346 391.539 395.508 391.711 395.594 391.922C395.68 392.134 395.684 392.37 395.606 392.584C395.528 392.799 395.372 392.976 395.17 393.082C394.049 393.519 393.048 394.218 392.251 395.12C391.454 396.022 390.884 397.101 390.588 398.268C390.541 398.483 390.417 398.674 390.24 398.806C390.064 398.938 389.846 399.002 389.626 398.986Z" fill="white"/>
        <path d="M444.523 381.261H444.696C444.933 381.215 445.143 381.078 445.28 380.879C445.417 380.68 445.47 380.435 445.428 380.198C445.068 378.726 444.357 377.363 443.357 376.226C442.356 375.088 441.096 374.208 439.683 373.662C439.466 373.605 439.236 373.63 439.036 373.731C438.836 373.832 438.68 374.003 438.597 374.211C438.514 374.419 438.51 374.651 438.586 374.862C438.661 375.073 438.812 375.249 439.008 375.357C440.13 375.793 441.132 376.491 441.929 377.393C442.726 378.295 443.295 379.375 443.59 380.542C443.637 380.752 443.756 380.939 443.926 381.071C444.097 381.202 444.308 381.269 444.523 381.261Z" fill="white"/>
        <path d="M437.342 385.699H437.514C437.632 385.678 437.745 385.634 437.847 385.57C437.948 385.505 438.035 385.42 438.103 385.321C438.171 385.222 438.219 385.111 438.244 384.993C438.268 384.876 438.269 384.754 438.246 384.636C437.884 383.166 437.172 381.804 436.172 380.667C435.172 379.529 433.913 378.649 432.501 378.1C432.282 378.035 432.047 378.054 431.841 378.153C431.636 378.252 431.474 378.424 431.388 378.635C431.302 378.847 431.298 379.083 431.376 379.297C431.454 379.512 431.61 379.689 431.812 379.795C432.935 380.232 433.937 380.931 434.737 381.833C435.536 382.734 436.109 383.814 436.408 384.981C436.455 385.191 436.574 385.378 436.745 385.509C436.915 385.641 437.127 385.708 437.342 385.699Z" fill="white"/>
        <path d="M430.16 390.123H430.332C430.449 390.101 430.561 390.056 430.66 389.99C430.76 389.925 430.845 389.84 430.912 389.741C430.979 389.642 431.025 389.531 431.049 389.415C431.073 389.298 431.073 389.177 431.05 389.06C430.695 387.586 429.987 386.221 428.986 385.082C427.985 383.943 426.721 383.066 425.305 382.525C425.194 382.478 425.074 382.454 424.954 382.454C424.833 382.454 424.714 382.478 424.603 382.525C424.492 382.572 424.391 382.641 424.307 382.727C424.223 382.813 424.157 382.915 424.113 383.027C424.026 383.253 424.03 383.502 424.124 383.725C424.218 383.947 424.394 384.124 424.615 384.22C425.74 384.655 426.744 385.352 427.543 386.254C428.343 387.156 428.915 388.237 429.212 389.405C429.256 389.619 429.377 389.81 429.551 389.942C429.726 390.074 429.942 390.138 430.16 390.123Z" fill="white"/>
        <path d="M422.978 394.562H423.15C423.268 394.541 423.381 394.497 423.482 394.432C423.582 394.367 423.668 394.282 423.736 394.183C423.803 394.084 423.849 393.972 423.872 393.855C423.895 393.737 423.894 393.616 423.869 393.499C423.508 392.027 422.797 390.665 421.797 389.527C420.797 388.389 419.536 387.509 418.123 386.963C417.904 386.898 417.669 386.917 417.464 387.016C417.258 387.115 417.096 387.287 417.01 387.498C416.924 387.71 416.92 387.945 416.998 388.16C417.076 388.374 417.232 388.552 417.434 388.658C418.556 389.094 419.558 389.792 420.355 390.694C421.152 391.597 421.721 392.676 422.016 393.844C422.063 394.059 422.187 394.25 422.364 394.382C422.54 394.514 422.758 394.577 422.978 394.562Z" fill="white"/>
        <path d="M415.796 398.986H415.969C416.203 398.938 416.41 398.799 416.544 398.601C416.678 398.402 416.729 398.159 416.687 397.923C416.328 396.451 415.618 395.087 414.618 393.949C413.617 392.81 412.356 391.932 410.941 391.387C410.828 391.328 410.703 391.293 410.575 391.284C410.447 391.275 410.319 391.294 410.198 391.338C410.078 391.382 409.968 391.45 409.875 391.539C409.783 391.629 409.71 391.736 409.662 391.855C409.614 391.974 409.591 392.101 409.595 392.229C409.599 392.358 409.629 392.484 409.685 392.599C409.74 392.715 409.82 392.818 409.917 392.901C410.015 392.984 410.129 393.046 410.252 393.082C411.373 393.519 412.374 394.218 413.171 395.12C413.968 396.022 414.538 397.101 414.834 398.268C414.882 398.483 415.005 398.674 415.182 398.806C415.358 398.938 415.576 399.002 415.796 398.986Z" fill="white"/>
        <path d="M124.963 215.825L79.8613 189.783V182.687L124.69 163.898L169.806 182.845V189.955L124.963 215.825Z" fill="#48CAE4"/>
        <path d="M124.963 208.729L79.8613 182.687L124.69 156.802L169.806 182.845L124.963 208.729Z" fill="white"/>
        <path d="M124.934 202.323L90.9501 182.701L124.719 163.194L158.717 182.83L124.934 202.323Z" fill="#48CAE4"/>
        <path d="M124.92 199.134L96.4801 182.715L124.733 166.397L153.173 182.816L124.92 199.134Z" fill="white"/>
        <path d="M82.8058 197.238H82.6335C82.5151 197.217 82.402 197.173 82.3009 197.108C82.1997 197.043 82.1125 196.959 82.0443 196.86C81.9761 196.761 81.9283 196.65 81.9037 196.532C81.8791 196.414 81.8781 196.293 81.9009 196.175C82.2639 194.704 82.9754 193.343 83.9754 192.205C84.9754 191.068 86.2345 190.187 87.6464 189.639C87.7567 189.595 87.8747 189.572 87.9936 189.574C88.1126 189.575 88.2301 189.6 88.3395 189.646C88.4489 189.693 88.548 189.761 88.6311 189.846C88.7143 189.931 88.7799 190.031 88.8242 190.142C88.8708 190.253 88.8948 190.372 88.8947 190.493C88.8946 190.613 88.8704 190.733 88.8236 190.844C88.7768 190.955 88.7082 191.055 88.622 191.14C88.5358 191.224 88.4336 191.29 88.3214 191.334C87.2011 191.773 86.2013 192.472 85.4046 193.374C84.6079 194.276 84.0371 195.354 83.7395 196.52C83.69 196.728 83.5702 196.914 83.4002 197.045C83.2302 197.175 83.0203 197.244 82.8058 197.238Z" fill="white"/>
        <path d="M89.9877 201.662H89.8153C89.578 201.617 89.3682 201.48 89.2311 201.281C89.094 201.082 89.0407 200.837 89.0828 200.599C89.4435 199.128 90.1542 197.765 91.1545 196.627C92.1548 195.489 93.4151 194.61 94.8282 194.063C95.053 193.973 95.3044 193.975 95.5277 194.069C95.7509 194.164 95.928 194.342 96.0204 194.566C96.1068 194.791 96.1027 195.041 96.009 195.263C95.9153 195.486 95.7392 195.663 95.5176 195.758C94.3922 196.191 93.3872 196.888 92.5873 197.791C91.7874 198.693 91.216 199.775 90.9213 200.944C90.877 201.155 90.7586 201.344 90.5873 201.476C90.4161 201.607 90.2034 201.674 89.9877 201.662Z" fill="white"/>
        <path d="M97.1695 206.101H96.9971C96.8792 206.08 96.7665 206.036 96.666 205.971C96.5655 205.906 96.4791 205.821 96.4121 205.722C96.345 205.623 96.2987 205.511 96.2758 205.393C96.2529 205.276 96.254 205.155 96.279 205.038C96.6396 203.566 97.3504 202.204 98.3507 201.066C99.351 199.928 100.611 199.048 102.024 198.502C102.138 198.442 102.263 198.407 102.391 198.398C102.519 198.39 102.647 198.408 102.768 198.452C102.888 198.496 102.998 198.565 103.09 198.654C103.183 198.743 103.255 198.85 103.304 198.969C103.352 199.088 103.375 199.216 103.371 199.344C103.367 199.472 103.336 199.598 103.281 199.714C103.225 199.829 103.146 199.932 103.048 200.015C102.951 200.099 102.837 200.16 102.714 200.197C101.591 200.634 100.588 201.332 99.7889 202.234C98.9895 203.136 98.4166 204.215 98.1175 205.383C98.0729 205.597 97.9523 205.787 97.778 205.919C97.6038 206.051 97.3876 206.116 97.1695 206.101Z" fill="white"/>
        <path d="M104.351 210.525H104.179C104.062 210.503 103.95 210.457 103.851 210.392C103.751 210.326 103.666 210.242 103.599 210.143C103.532 210.044 103.486 209.933 103.462 209.816C103.438 209.699 103.438 209.579 103.461 209.462C103.819 207.989 104.529 206.626 105.53 205.487C106.53 204.349 107.792 203.47 109.206 202.926C109.32 202.867 109.444 202.831 109.572 202.823C109.7 202.814 109.829 202.832 109.949 202.876C110.07 202.92 110.18 202.989 110.272 203.078C110.364 203.167 110.437 203.275 110.485 203.394C110.534 203.512 110.557 203.64 110.553 203.768C110.549 203.896 110.518 204.022 110.463 204.138C110.407 204.254 110.328 204.356 110.23 204.44C110.133 204.523 110.019 204.585 109.896 204.621C108.773 205.057 107.772 205.755 106.975 206.657C106.178 207.56 105.608 208.639 105.314 209.807C105.266 210.022 105.143 210.213 104.966 210.345C104.789 210.477 104.571 210.541 104.351 210.525Z" fill="white"/>
        <path d="M111.547 214.964H111.361C111.244 214.941 111.132 214.896 111.033 214.83C110.933 214.765 110.847 214.68 110.781 214.581C110.714 214.483 110.667 214.372 110.644 214.255C110.62 214.138 110.62 214.018 110.643 213.901C111.005 212.43 111.717 211.068 112.717 209.931C113.717 208.793 114.976 207.913 116.388 207.365C116.605 207.308 116.835 207.333 117.035 207.434C117.235 207.535 117.391 207.706 117.474 207.914C117.557 208.122 117.561 208.354 117.485 208.565C117.409 208.776 117.259 208.952 117.063 209.06C115.943 209.499 114.943 210.198 114.146 211.1C113.349 212.001 112.779 213.079 112.481 214.245C112.432 214.454 112.312 214.639 112.142 214.77C111.972 214.901 111.762 214.969 111.547 214.964Z" fill="white"/>
        <path d="M166.445 197.224H166.617C166.735 197.203 166.848 197.159 166.948 197.094C167.049 197.029 167.135 196.944 167.202 196.845C167.269 196.746 167.316 196.634 167.339 196.516C167.362 196.399 167.36 196.278 167.336 196.161C166.976 194.689 166.266 193.325 165.265 192.187C164.265 191.049 163.004 190.17 161.59 189.625C161.373 189.568 161.143 189.593 160.943 189.694C160.743 189.795 160.587 189.966 160.504 190.174C160.421 190.382 160.417 190.614 160.493 190.825C160.569 191.036 160.719 191.212 160.915 191.32C162.035 191.759 163.035 192.458 163.832 193.359C164.629 194.261 165.199 195.339 165.497 196.505C165.544 196.718 165.666 196.907 165.839 197.038C166.013 197.17 166.227 197.236 166.445 197.224Z" fill="white"/>
        <path d="M159.249 201.662H159.421C159.658 201.617 159.868 201.48 160.005 201.281C160.143 201.082 160.196 200.837 160.154 200.599C159.793 199.128 159.082 197.765 158.082 196.627C157.082 195.489 155.821 194.61 154.408 194.063C154.191 194.007 153.961 194.032 153.761 194.133C153.561 194.234 153.405 194.405 153.322 194.613C153.24 194.821 153.236 195.052 153.311 195.263C153.387 195.474 153.537 195.65 153.733 195.758C154.855 196.194 155.857 196.892 156.654 197.795C157.451 198.697 158.021 199.777 158.315 200.944C158.362 201.154 158.481 201.341 158.652 201.472C158.822 201.604 159.034 201.671 159.249 201.662Z" fill="white"/>
        <path d="M152.067 206.101H152.239C152.477 206.055 152.686 205.918 152.824 205.72C152.961 205.521 153.014 205.276 152.972 205.038C152.609 203.567 151.897 202.206 150.897 201.068C149.897 199.931 148.638 199.05 147.226 198.502C147.113 198.442 146.988 198.407 146.86 198.398C146.732 198.39 146.604 198.408 146.483 198.452C146.363 198.496 146.253 198.565 146.16 198.654C146.068 198.743 145.995 198.85 145.947 198.969C145.899 199.088 145.876 199.216 145.88 199.344C145.884 199.472 145.915 199.598 145.97 199.714C146.026 199.829 146.105 199.932 146.202 200.015C146.3 200.099 146.414 200.16 146.537 200.197C147.66 200.634 148.663 201.332 149.462 202.234C150.261 203.136 150.834 204.215 151.133 205.383C151.18 205.593 151.299 205.78 151.47 205.911C151.641 206.042 151.852 206.109 152.067 206.101Z" fill="white"/>
        <path d="M144.885 210.525H145.058C145.175 210.503 145.286 210.457 145.386 210.392C145.485 210.326 145.571 210.242 145.638 210.143C145.704 210.044 145.751 209.933 145.775 209.816C145.798 209.699 145.799 209.579 145.776 209.462C145.417 207.989 144.707 206.626 143.707 205.487C142.706 204.349 141.445 203.47 140.03 202.926C139.919 202.88 139.8 202.856 139.679 202.856C139.559 202.856 139.44 202.88 139.329 202.927C139.217 202.974 139.117 203.042 139.033 203.128C138.949 203.215 138.882 203.317 138.838 203.429C138.748 203.654 138.75 203.905 138.844 204.129C138.938 204.352 139.117 204.529 139.341 204.621C140.465 205.054 141.468 205.751 142.266 206.654C143.063 207.556 143.632 208.638 143.923 209.807C143.971 210.022 144.094 210.213 144.271 210.345C144.447 210.477 144.665 210.541 144.885 210.525Z" fill="white"/>
        <path d="M137.703 214.964H137.876C137.994 214.943 138.106 214.899 138.207 214.834C138.307 214.769 138.394 214.684 138.461 214.585C138.528 214.486 138.574 214.374 138.597 214.256C138.62 214.139 138.619 214.018 138.594 213.901C138.233 212.429 137.523 211.066 136.522 209.928C135.522 208.791 134.262 207.911 132.849 207.365C132.624 207.275 132.372 207.277 132.149 207.371C131.926 207.465 131.749 207.644 131.656 207.868C131.61 207.979 131.586 208.098 131.586 208.219C131.586 208.339 131.61 208.458 131.657 208.569C131.704 208.68 131.772 208.781 131.859 208.865C131.945 208.949 132.047 209.016 132.159 209.06C133.279 209.499 134.279 210.198 135.076 211.1C135.873 212.001 136.443 213.08 136.741 214.245C136.791 214.459 136.915 214.648 137.091 214.78C137.267 214.911 137.484 214.976 137.703 214.964Z" fill="white"/>
        <path d="M103.36 396.314L58.2443 370.257V363.161L103.087 344.387L148.189 363.319V370.43L103.36 396.314Z" fill="#48CAE4"/>
        <path d="M103.36 389.204L58.2443 363.161L103.087 337.277L148.189 363.319L103.36 389.204Z" fill="white"/>
        <path d="M103.331 382.812L69.3329 363.176L103.116 343.683L137.115 363.305L103.331 382.812Z" fill="#48CAE4"/>
        <path d="M103.317 379.609L74.8772 363.19L103.13 346.886L131.57 363.291L103.317 379.609Z" fill="white"/>
        <path d="M61.1888 377.713H61.0165C60.8994 377.69 60.7879 377.645 60.6883 377.579C60.5888 377.514 60.5032 377.429 60.4365 377.33C60.3697 377.231 60.3232 377.12 60.2995 377.004C60.2757 376.887 60.2753 376.766 60.2983 376.65C60.6567 375.177 61.3666 373.813 62.3672 372.675C63.3678 371.537 64.6293 370.658 66.0437 370.114C66.1538 370.067 66.2721 370.043 66.3916 370.044C66.5111 370.044 66.6293 370.068 66.7392 370.115C66.8491 370.162 66.9485 370.231 67.0313 370.317C67.1142 370.403 67.1789 370.505 67.2215 370.616C67.2659 370.727 67.2881 370.845 67.2869 370.964C67.2857 371.083 67.261 371.2 67.2143 371.31C67.1676 371.419 67.0998 371.518 67.0148 371.601C66.9298 371.684 66.8292 371.75 66.7188 371.794C65.5985 372.233 64.5987 372.932 63.802 373.834C63.0052 374.736 62.4345 375.814 62.1368 376.98C62.0925 377.195 61.9725 377.387 61.7985 377.522C61.6246 377.656 61.4083 377.724 61.1888 377.713Z" fill="white"/>
        <path d="M68.3849 382.137H68.2126C68.0942 382.116 67.9811 382.072 67.88 382.007C67.7788 381.942 67.6916 381.858 67.6234 381.759C67.5552 381.66 67.5074 381.548 67.4828 381.431C67.4582 381.313 67.4572 381.192 67.48 381.074C67.843 379.603 68.5545 378.242 69.5545 377.104C70.5545 375.967 71.8136 375.086 73.2255 374.538C73.3358 374.494 73.4538 374.471 73.5727 374.473C73.6917 374.474 73.8092 374.499 73.9186 374.545C74.028 374.592 74.1271 374.66 74.2103 374.745C74.2934 374.83 74.359 374.93 74.4033 375.041C74.4499 375.152 74.4739 375.271 74.4738 375.392C74.4737 375.512 74.4495 375.632 74.4027 375.743C74.3559 375.854 74.2873 375.954 74.2011 376.039C74.1149 376.123 74.0127 376.189 73.9005 376.233C72.7802 376.672 71.7804 377.371 70.9837 378.273C70.187 379.174 69.6162 380.253 69.3186 381.419C69.2716 381.629 69.1525 381.816 68.9819 381.947C68.8113 382.078 68.6 382.145 68.3849 382.137Z" fill="white"/>
        <path d="M75.5667 386.547H75.3944C75.1589 386.498 74.9513 386.36 74.8148 386.162C74.6783 385.964 74.6235 385.721 74.6618 385.484C75.0225 384.012 75.7332 382.649 76.7335 381.512C77.7338 380.374 78.9941 379.494 80.4072 378.948C80.5183 378.901 80.6377 378.877 80.7582 378.877C80.8787 378.877 80.998 378.902 81.1091 378.948C81.2201 378.995 81.3207 379.064 81.4049 379.15C81.4891 379.236 81.5552 379.338 81.5994 379.451C81.6438 379.561 81.666 379.679 81.6648 379.798C81.6636 379.917 81.6389 380.034 81.5922 380.144C81.5455 380.253 81.4777 380.352 81.3927 380.435C81.3077 380.519 81.2071 380.584 81.0967 380.629C79.9737 381.066 78.971 381.764 78.1717 382.666C77.3724 383.567 76.7994 384.647 76.5003 385.814C76.4591 386.028 76.3419 386.22 76.1704 386.355C75.9988 386.489 75.7845 386.557 75.5667 386.547Z" fill="white"/>
        <path d="M82.7485 391H82.5761C82.4581 390.979 82.3455 390.935 82.245 390.87C82.1444 390.805 82.0581 390.72 81.991 390.621C81.924 390.522 81.8776 390.41 81.8548 390.292C81.8319 390.175 81.833 390.054 81.8579 389.937C82.2186 388.465 82.9293 387.102 83.9296 385.965C84.9299 384.827 86.1902 383.947 87.6034 383.401C87.8222 383.336 88.0574 383.355 88.2631 383.454C88.4689 383.552 88.6305 383.724 88.7165 383.936C88.8025 384.147 88.8068 384.383 88.7285 384.598C88.6501 384.812 88.4949 384.99 88.2928 385.096C87.1706 385.532 86.1691 386.23 85.372 387.132C84.5748 388.034 84.0052 389.114 83.7108 390.281C83.6632 390.497 83.5398 390.688 83.3631 390.819C83.1865 390.951 82.9683 391.015 82.7485 391Z" fill="white"/>
        <path d="M89.9303 395.438H89.7579C89.6408 395.416 89.5293 395.371 89.4298 395.305C89.3303 395.239 89.2447 395.155 89.1779 395.056C89.1112 394.957 89.0646 394.846 89.0409 394.729C89.0172 394.613 89.0168 394.492 89.0397 394.375C89.3982 392.903 90.1081 391.539 91.1087 390.401C92.1093 389.262 93.3707 388.384 94.7851 387.839C94.8963 387.793 95.0156 387.769 95.1361 387.769C95.2566 387.769 95.3759 387.793 95.487 387.84C95.598 387.887 95.6986 387.955 95.7828 388.042C95.867 388.128 95.9331 388.23 95.9773 388.342C96.0675 388.567 96.0653 388.818 95.9712 389.042C95.8771 389.265 95.6986 389.442 95.4746 389.534C94.3524 389.97 93.3509 390.668 92.5537 391.571C91.7566 392.473 91.187 393.553 90.8926 394.72C90.845 394.935 90.7216 395.126 90.5449 395.258C90.3683 395.39 90.1501 395.454 89.9303 395.438Z" fill="white"/>
        <path d="M144.828 377.713H145C145.237 377.667 145.447 377.53 145.584 377.331C145.721 377.132 145.775 376.887 145.733 376.65C145.372 375.178 144.661 373.815 143.661 372.677C142.661 371.54 141.4 370.66 139.987 370.114C139.764 370.024 139.515 370.027 139.294 370.121C139.073 370.215 138.899 370.394 138.809 370.616C138.72 370.839 138.723 371.089 138.817 371.31C138.911 371.53 139.089 371.705 139.312 371.794C140.432 372.233 141.432 372.932 142.229 373.834C143.026 374.736 143.596 375.814 143.894 376.98C143.938 377.193 144.056 377.383 144.227 377.517C144.398 377.651 144.611 377.72 144.828 377.713Z" fill="white"/>
        <path d="M137.646 382.137H137.818C137.937 382.116 138.05 382.072 138.151 382.007C138.252 381.942 138.339 381.858 138.408 381.759C138.476 381.66 138.524 381.548 138.548 381.431C138.573 381.313 138.574 381.192 138.551 381.074C138.188 379.603 137.477 378.242 136.477 377.104C135.477 375.966 134.217 375.086 132.806 374.538C132.692 374.478 132.567 374.443 132.439 374.434C132.311 374.426 132.183 374.444 132.062 374.488C131.942 374.532 131.832 374.601 131.74 374.69C131.647 374.779 131.575 374.886 131.526 375.005C131.478 375.124 131.455 375.252 131.459 375.38C131.463 375.508 131.494 375.634 131.549 375.75C131.605 375.865 131.684 375.968 131.782 376.051C131.879 376.135 131.993 376.196 132.116 376.233C133.239 376.67 134.242 377.368 135.041 378.27C135.84 379.172 136.413 380.251 136.712 381.418C136.757 381.63 136.875 381.819 137.046 381.95C137.218 382.082 137.43 382.148 137.646 382.137Z" fill="white"/>
        <path d="M130.464 386.547H130.637C130.754 386.524 130.865 386.479 130.965 386.413C131.064 386.348 131.15 386.263 131.217 386.164C131.283 386.066 131.33 385.955 131.354 385.838C131.377 385.721 131.378 385.601 131.355 385.484C130.996 384.011 130.286 382.647 129.286 381.509C128.285 380.371 127.024 379.492 125.609 378.948C125.498 378.901 125.379 378.877 125.258 378.877C125.138 378.877 125.019 378.902 124.907 378.948C124.796 378.995 124.696 379.064 124.612 379.15C124.527 379.236 124.461 379.338 124.417 379.451C124.373 379.561 124.35 379.679 124.352 379.798C124.353 379.917 124.378 380.034 124.424 380.144C124.471 380.253 124.539 380.352 124.624 380.435C124.709 380.519 124.809 380.584 124.92 380.629C126.043 381.066 127.046 381.764 127.845 382.666C128.644 383.567 129.217 384.647 129.516 385.814C129.555 386.032 129.673 386.228 129.849 386.364C130.024 386.499 130.243 386.564 130.464 386.547Z" fill="white"/>
        <path d="M123.282 391H123.455C123.573 390.979 123.685 390.935 123.786 390.87C123.886 390.805 123.973 390.72 124.04 390.621C124.107 390.522 124.153 390.41 124.176 390.292C124.199 390.175 124.198 390.054 124.173 389.937C123.812 388.465 123.101 387.102 122.101 385.965C121.101 384.827 119.841 383.947 118.427 383.401C118.203 383.311 117.951 383.313 117.728 383.407C117.505 383.501 117.328 383.68 117.235 383.904C117.189 384.015 117.165 384.134 117.165 384.255C117.165 384.375 117.189 384.494 117.236 384.605C117.283 384.717 117.351 384.817 117.437 384.901C117.524 384.986 117.626 385.052 117.738 385.096C118.858 385.535 119.858 386.234 120.655 387.136C121.452 388.037 122.022 389.115 122.32 390.281C122.368 390.497 122.491 390.687 122.668 390.819C122.844 390.951 123.062 391.015 123.282 391Z" fill="white"/>
        <path d="M116.086 395.438H116.273C116.508 395.39 116.714 395.251 116.848 395.053C116.982 394.854 117.034 394.611 116.991 394.375C116.63 392.904 115.92 391.541 114.919 390.403C113.919 389.265 112.659 388.386 111.246 387.839C111.135 387.795 111.017 387.773 110.898 387.774C110.78 387.775 110.662 387.8 110.553 387.847C110.443 387.893 110.344 387.961 110.261 388.046C110.178 388.131 110.112 388.232 110.068 388.342C109.978 388.567 109.98 388.818 110.074 389.042C110.168 389.265 110.347 389.442 110.571 389.534C111.693 389.97 112.694 390.668 113.492 391.571C114.289 392.473 114.858 393.553 115.153 394.72C115.2 394.93 115.319 395.117 115.489 395.248C115.66 395.38 115.871 395.447 116.086 395.438Z" fill="white"/>
        <path d="M420.551 230.305L375.435 204.262V197.152L420.263 178.377L465.379 197.324V204.42L420.551 230.305Z" fill="#48CAE4"/>
        <path d="M420.551 223.194L375.435 197.152L420.263 171.267L465.379 197.324L420.551 223.194Z" fill="white"/>
        <path d="M420.508 216.802L386.523 197.18L420.292 177.674L454.291 197.295L420.508 216.802Z" fill="#48CAE4"/>
        <path d="M420.493 213.599L392.068 197.18L420.321 180.877L448.746 197.281L420.493 213.599Z" fill="white"/>
        <path d="M378.379 211.703H378.207C377.97 211.657 377.76 211.52 377.623 211.322C377.486 211.123 377.432 210.878 377.474 210.64C377.835 209.168 378.546 207.806 379.546 206.668C380.546 205.53 381.807 204.65 383.22 204.104C383.445 204.014 383.696 204.016 383.919 204.11C384.143 204.204 384.32 204.383 384.412 204.607C384.497 204.834 384.491 205.085 384.395 205.308C384.298 205.53 384.119 205.706 383.895 205.799C382.773 206.235 381.771 206.933 380.974 207.835C380.177 208.737 379.607 209.817 379.313 210.985C379.269 211.196 379.15 211.385 378.979 211.516C378.808 211.648 378.595 211.714 378.379 211.703Z" fill="white"/>
        <path d="M385.561 216.142H385.389C385.271 216.121 385.158 216.077 385.057 216.012C384.957 215.947 384.871 215.862 384.804 215.763C384.736 215.664 384.69 215.552 384.667 215.434C384.644 215.317 384.645 215.196 384.67 215.079C385.028 213.606 385.737 212.241 386.738 211.103C387.739 209.964 389.001 209.086 390.416 208.543C390.635 208.478 390.87 208.497 391.076 208.595C391.281 208.694 391.443 208.866 391.529 209.078C391.615 209.289 391.619 209.525 391.541 209.739C391.463 209.954 391.307 210.131 391.105 210.238C389.982 210.675 388.98 211.373 388.18 212.275C387.381 213.177 386.808 214.256 386.509 215.423C386.462 215.636 386.34 215.825 386.167 215.956C385.993 216.088 385.778 216.154 385.561 216.142Z" fill="white"/>
        <path d="M392.743 220.566H392.57C392.453 220.543 392.342 220.498 392.242 220.432C392.143 220.367 392.057 220.282 391.99 220.183C391.924 220.085 391.877 219.974 391.853 219.857C391.83 219.74 391.829 219.62 391.852 219.503C392.211 218.03 392.921 216.666 393.921 215.528C394.922 214.39 396.183 213.511 397.598 212.967C397.709 212.92 397.828 212.896 397.949 212.896C398.069 212.897 398.188 212.921 398.299 212.968C398.411 213.014 398.511 213.083 398.595 213.169C398.679 213.255 398.746 213.358 398.79 213.47C398.876 213.695 398.872 213.945 398.778 214.167C398.685 214.389 398.509 214.567 398.287 214.662C397.163 215.095 396.16 215.792 395.362 216.695C394.565 217.597 393.996 218.679 393.705 219.848C393.657 220.063 393.534 220.254 393.357 220.385C393.181 220.517 392.963 220.581 392.743 220.566Z" fill="white"/>
        <path d="M399.924 225.004H399.752C399.634 224.984 399.522 224.94 399.421 224.875C399.32 224.809 399.234 224.725 399.167 224.626C399.1 224.526 399.054 224.415 399.031 224.297C399.008 224.179 399.009 224.058 399.034 223.941C399.395 222.47 400.105 221.107 401.106 219.969C402.106 218.831 403.366 217.952 404.779 217.406C405.004 217.315 405.256 217.318 405.479 217.412C405.702 217.506 405.879 217.684 405.971 217.908C406.018 218.019 406.042 218.139 406.042 218.259C406.042 218.38 406.018 218.499 405.971 218.61C405.924 218.721 405.856 218.822 405.769 218.906C405.683 218.99 405.581 219.056 405.469 219.101C404.344 219.526 403.337 220.213 402.531 221.105C401.724 221.997 401.141 223.067 400.829 224.229C400.793 224.443 400.682 224.638 400.517 224.78C400.352 224.921 400.142 225.001 399.924 225.004Z" fill="white"/>
        <path d="M407.121 229.429H406.948C406.711 229.383 406.501 229.246 406.364 229.047C406.227 228.848 406.174 228.603 406.216 228.366C406.577 226.894 407.287 225.531 408.288 224.393C409.288 223.256 410.548 222.376 411.961 221.83C412.178 221.773 412.408 221.798 412.608 221.899C412.808 222 412.964 222.171 413.047 222.379C413.13 222.587 413.134 222.819 413.059 223.03C412.983 223.241 412.833 223.417 412.636 223.525C411.514 223.961 410.513 224.659 409.716 225.561C408.918 226.463 408.349 227.543 408.054 228.71C408.008 228.92 407.888 229.107 407.718 229.239C407.547 229.37 407.336 229.437 407.121 229.429Z" fill="white"/>
        <path d="M462.018 211.703H462.191C462.308 211.681 462.419 211.635 462.519 211.57C462.618 211.504 462.704 211.419 462.771 211.321C462.837 211.222 462.884 211.111 462.908 210.994C462.931 210.877 462.932 210.757 462.909 210.64C462.55 209.167 461.84 207.804 460.84 206.665C459.839 205.527 458.578 204.648 457.163 204.104C457.052 204.057 456.933 204.033 456.812 204.034C456.692 204.034 456.573 204.058 456.461 204.105C456.35 204.152 456.25 204.22 456.166 204.306C456.081 204.393 456.015 204.495 455.971 204.607C455.881 204.832 455.883 205.083 455.977 205.306C456.071 205.53 456.25 205.707 456.474 205.799C457.596 206.235 458.598 206.933 459.395 207.835C460.192 208.737 460.761 209.817 461.056 210.985C461.103 211.2 461.227 211.391 461.404 211.523C461.58 211.655 461.798 211.718 462.018 211.703Z" fill="white"/>
        <path d="M454.822 216.141H455.009C455.126 216.119 455.237 216.074 455.337 216.008C455.436 215.943 455.522 215.858 455.589 215.759C455.655 215.66 455.702 215.549 455.726 215.433C455.749 215.316 455.75 215.195 455.727 215.079C455.364 213.608 454.652 212.246 453.652 211.109C452.652 209.971 451.393 209.091 449.982 208.543C449.765 208.486 449.535 208.511 449.335 208.612C449.135 208.713 448.979 208.884 448.896 209.092C448.813 209.3 448.809 209.532 448.884 209.743C448.96 209.954 449.11 210.13 449.306 210.238C450.427 210.677 451.427 211.376 452.223 212.277C453.02 213.179 453.591 214.257 453.888 215.423C453.938 215.632 454.058 215.817 454.228 215.948C454.398 216.079 454.608 216.147 454.822 216.141Z" fill="white"/>
        <path d="M447.64 220.566H447.813C448.05 220.52 448.26 220.383 448.397 220.184C448.534 219.986 448.587 219.741 448.545 219.503C448.185 218.031 447.474 216.669 446.474 215.531C445.473 214.393 444.213 213.513 442.8 212.967C442.686 212.904 442.559 212.866 442.429 212.856C442.3 212.846 442.169 212.863 442.046 212.907C441.924 212.951 441.812 213.021 441.718 213.111C441.624 213.202 441.551 213.311 441.503 213.432C441.454 213.553 441.432 213.683 441.438 213.813C441.444 213.944 441.477 214.071 441.536 214.187C441.595 214.304 441.678 214.406 441.779 214.488C441.881 214.57 441.999 214.629 442.125 214.662C443.247 215.098 444.248 215.796 445.046 216.698C445.843 217.6 446.412 218.68 446.707 219.848C446.751 220.059 446.869 220.248 447.041 220.379C447.212 220.511 447.425 220.577 447.64 220.566Z" fill="white"/>
        <path d="M440.459 225.004H440.631C440.749 224.984 440.862 224.94 440.962 224.875C441.063 224.809 441.149 224.725 441.216 224.626C441.283 224.526 441.329 224.415 441.352 224.297C441.375 224.179 441.374 224.058 441.349 223.941C440.992 222.468 440.282 221.104 439.282 219.966C438.281 218.827 437.019 217.949 435.604 217.406C435.49 217.346 435.365 217.311 435.237 217.302C435.109 217.293 434.981 217.312 434.86 217.356C434.74 217.4 434.63 217.468 434.538 217.558C434.445 217.647 434.373 217.754 434.324 217.873C434.276 217.992 434.253 218.119 434.257 218.248C434.261 218.376 434.292 218.502 434.347 218.617C434.403 218.733 434.482 218.836 434.58 218.919C434.677 219.002 434.791 219.064 434.914 219.101C436.049 219.519 437.068 220.202 437.885 221.095C438.702 221.987 439.294 223.061 439.611 224.229C439.643 224.435 439.745 224.624 439.899 224.765C440.053 224.906 440.25 224.99 440.459 225.004Z" fill="white"/>
        <path d="M433.277 229.429H433.449C433.566 229.406 433.678 229.361 433.777 229.295C433.877 229.23 433.962 229.145 434.029 229.046C434.096 228.948 434.142 228.837 434.166 228.72C434.19 228.603 434.19 228.483 434.167 228.366C433.809 226.893 433.099 225.529 432.098 224.391C431.098 223.253 429.836 222.374 428.422 221.83C428.311 221.783 428.191 221.759 428.071 221.759C427.95 221.759 427.831 221.784 427.72 221.83C427.609 221.877 427.508 221.946 427.424 222.032C427.34 222.118 427.274 222.22 427.23 222.333C427.139 222.557 427.142 222.809 427.236 223.032C427.33 223.255 427.508 223.432 427.732 223.525C428.856 223.958 429.86 224.655 430.657 225.557C431.455 226.46 432.023 227.541 432.314 228.71C432.362 228.926 432.485 229.116 432.662 229.248C432.839 229.38 433.057 229.444 433.277 229.429Z" fill="white"/>
        <g opacity="0.57">
            <path opacity="0.57" d="M128.597 352.862L127.189 350.348L167.292 327.983L199.438 342.764L243.419 318.287L244.827 320.801L199.553 345.982L167.422 331.201L128.597 352.862Z" fill="white"/>
        </g>
        <g opacity="0.57">
            <path opacity="0.57" d="M138.063 328.974L136.698 326.446L169.734 308.72L185.836 315.73L204.638 302.098L206.318 304.425L186.18 319.019L169.863 311.909L138.063 328.974Z" fill="white"/>
        </g>
        <g opacity="0.57">
            <path opacity="0.57" d="M334.47 387.638L301.161 370.157L356.949 333.915L305.671 311.765L306.806 309.122L363.01 333.398L306.834 369.898L335.806 385.081L334.47 387.638Z" fill="white"/>
        </g>
        <g opacity="0.57">
            <path opacity="0.57" d="M138.608 266.029L111.217 250.731L204.753 195.988L206.203 198.473L117.006 250.674L138.623 262.74L188.852 235.375L219.188 252.053L217.795 254.566L188.838 238.651L138.608 266.029Z" fill="white"/>
        </g>
    </g>
    <defs>
        <linearGradient id="paint0_linear" x1="320.925" y1="322.884" x2="207.606" y2="237.58" gradientUnits="userSpaceOnUse">
            <stop offset="0.01"/>
            <stop offset="0.13" stop-opacity="0.69"/>
            <stop offset="0.25" stop-opacity="0.32"/>
            <stop offset="1" stop-opacity="0"/>
        </linearGradient>
        <clipPath id="clip0">
            <rect width="543" height="438" fill="white"/>
        </clipPath>
    </defs>
</svg>
